<?xml version="1.0" encoding="UTF-8"?>
<!DOCTYPE svg PUBLIC "-//W3C//DTD SVG 1.1//EN" "http://www.w3.org/Graphics/SVG/1.1/DTD/svg11.dtd">
<!-- Creator: CorelDRAW -->
<svg xmlns="http://www.w3.org/2000/svg" xml:space="preserve" width="5.08mm" height="5.08mm" version="1.1" style="shape-rendering:geometricPrecision; text-rendering:geometricPrecision; image-rendering:optimizeQuality; fill-rule:evenodd; clip-rule:evenodd"
viewBox="0 0 25.4 25.4"
 xmlns:xlink="http://www.w3.org/1999/xlink"
 xmlns:xodm="http://www.corel.com/coreldraw/odm/2003">
 <defs>
  <style type="text/css">
   <![CDATA[
    .fil0 {fill:#FEFEFE;fill-rule:nonzero}
   ]]>
  </style>
 </defs>
 <g id="Layer_x0020_1">
  <metadata id="CorelCorpID_0Corel-Layer"/>
  <path id="Facebook.svg" class="fil0" d="M25.4 12.78c0,-7.06 -5.69,-12.78 -12.7,-12.78 -7.01,0 -12.7,5.72 -12.7,12.78 0,6.38 4.64,11.66 10.72,12.62l0 -8.93 -3.22 0 0 -3.69 3.22 0 0 -2.82c0,-3.2 1.9,-4.97 4.8,-4.97 1.39,0 2.84,0.25 2.84,0.25l0 3.14 -1.6 0c-1.58,0 -2.07,0.98 -2.07,2l0 2.4 3.52 0 -0.56 3.69 -2.96 0 0 8.93c6.07,-0.96 10.72,-6.24 10.72,-12.62z"/>
 </g>
</svg>
