<?xml version="1.0" encoding="UTF-8"?>
<!DOCTYPE svg PUBLIC "-//W3C//DTD SVG 1.1//EN" "http://www.w3.org/Graphics/SVG/1.1/DTD/svg11.dtd">
<!-- Creator: CorelDRAW -->
<svg xmlns="http://www.w3.org/2000/svg" xml:space="preserve" width="5.08mm" height="5.082mm" version="1.1" style="shape-rendering:geometricPrecision; text-rendering:geometricPrecision; image-rendering:optimizeQuality; fill-rule:evenodd; clip-rule:evenodd"
viewBox="0 0 34.38 34.4"
 xmlns:xlink="http://www.w3.org/1999/xlink"
 xmlns:xodm="http://www.corel.com/coreldraw/odm/2003">
 <defs>
  <style type="text/css">
   <![CDATA[
    .fil0 {fill:#FEFEFE;fill-rule:nonzero}
   ]]>
  </style>
 </defs>
 <g id="Layer_x0020_1">
  <metadata id="CorelCorpID_0Corel-Layer"/>
  <g id="Instagram.svg">
   <path class="fil0" d="M17.2 3.1c4.6,0 5.14,0.02 6.95,0.1 1.68,0.07 2.59,0.36 3.19,0.59 0.8,0.31 1.38,0.69 1.97,1.28 0.61,0.61 0.97,1.18 1.29,1.98 0.24,0.61 0.52,1.52 0.59,3.19 0.08,1.81 0.1,2.36 0.1,6.95 0,4.59 -0.02,5.14 -0.1,6.95 -0.07,1.68 -0.36,2.59 -0.59,3.19 -0.31,0.8 -0.68,1.38 -1.28,1.97 -0.61,0.61 -1.18,0.97 -1.97,1.29 -0.61,0.24 -1.52,0.52 -3.19,0.59 -1.82,0.08 -2.36,0.1 -6.95,0.1 -4.59,0 -5.14,-0.02 -6.95,-0.1 -1.68,-0.07 -2.59,-0.36 -3.19,-0.59 -0.8,-0.31 -1.38,-0.68 -1.98,-1.28 -0.6,-0.61 -0.97,-1.18 -1.29,-1.97 -0.24,-0.61 -0.52,-1.52 -0.59,-3.19 -0.08,-1.81 -0.1,-2.36 -0.1,-6.95 0,-4.59 0.02,-5.14 0.1,-6.95 0.07,-1.68 0.36,-2.59 0.59,-3.19 0.31,-0.8 0.69,-1.38 1.28,-1.98 0.61,-0.6 1.18,-0.97 1.98,-1.29 0.6,-0.24 1.52,-0.52 3.19,-0.59 1.81,-0.08 2.35,-0.1 6.95,-0.1l0 0zm0 -3.1c-4.67,0 -5.25,0.02 -7.09,0.1 -1.83,0.08 -3.08,0.38 -4.17,0.8 -1.14,0.44 -2.1,1.03 -3.05,1.99 -0.96,0.95 -1.55,1.91 -1.99,3.04 -0.42,1.1 -0.72,2.34 -0.8,4.17 -0.08,1.84 -0.1,2.43 -0.1,7.1 0,4.67 0.02,5.25 0.1,7.09 0.08,1.83 0.38,3.08 0.8,4.17 0.44,1.14 1.03,2.1 1.99,3.05 0.95,0.95 1.91,1.55 3.04,1.98 1.1,0.42 2.34,0.72 4.17,0.8 1.83,0.08 2.42,0.1 7.09,0.1 4.67,0 5.25,-0.02 7.09,-0.1 1.83,-0.08 3.08,-0.38 4.17,-0.8 1.13,-0.44 2.09,-1.03 3.04,-1.98 0.95,-0.96 1.55,-1.92 1.98,-3.04 0.42,-1.1 0.72,-2.34 0.8,-4.17 0.08,-1.83 0.1,-2.42 0.1,-7.09 0,-4.67 -0.02,-5.25 -0.1,-7.09 -0.08,-1.83 -0.38,-3.08 -0.8,-4.17 -0.42,-1.14 -1.01,-2.1 -1.97,-3.06 -0.95,-0.95 -1.91,-1.55 -3.04,-1.98 -1.1,-0.42 -2.34,-0.72 -4.17,-0.8 -1.84,-0.09 -2.43,-0.11 -7.1,-0.11l-0 0z"/>
   <path class="fil0" d="M17.2 8.37c-4.88,0 -8.84,3.96 -8.84,8.84 0,4.88 3.96,8.84 8.84,8.84 4.88,0 8.84,-3.96 8.84,-8.84 0,-4.88 -3.96,-8.84 -8.84,-8.84zm0 14.57c-3.16,0 -5.73,-2.57 -5.73,-5.73 0,-3.16 2.57,-5.73 5.73,-5.73 3.16,0 5.73,2.57 5.73,5.73 0,3.17 -2.57,5.73 -5.73,5.73z"/>
   <path class="fil0" d="M28.45 8.02c0,1.14 -0.92,2.06 -2.06,2.06 -1.14,0 -2.06,-0.92 -2.06,-2.06 0,-1.14 0.92,-2.06 2.06,-2.06 1.14,0 2.06,0.92 2.06,2.06z"/>
  </g>
 </g>
</svg>
