<?xml version="1.0" encoding="UTF-8"?>
<!DOCTYPE svg PUBLIC "-//W3C//DTD SVG 1.1//EN" "http://www.w3.org/Graphics/SVG/1.1/DTD/svg11.dtd">
<!-- Creator: CorelDRAW -->
<svg xmlns="http://www.w3.org/2000/svg" xml:space="preserve" width="156.783mm" height="30mm" version="1.1" style="shape-rendering:geometricPrecision; text-rendering:geometricPrecision; image-rendering:optimizeQuality; fill-rule:evenodd; clip-rule:evenodd"
viewBox="0 0 15662.16 2996.91"
 xmlns:xlink="http://www.w3.org/1999/xlink"
 xmlns:xodm="http://www.corel.com/coreldraw/odm/2003">
 <defs>
  <style type="text/css">
   <![CDATA[
    .fil0 {fill:#4ADE80}
    .fil2 {fill:#4ADE80;fill-rule:nonzero}
    .fil1 {fill:#E6EDF3;fill-rule:nonzero}
   ]]>
  </style>
 </defs>
 <g id="Layer_x0020_1">
  <metadata id="CorelCorpID_0Corel-Layer"/>
  <path class="fil0" d="M2710 1988.68c12.57,-94.51 -62.73,-173.32 -152.62,-183.57 -106.04,-12.08 -185.42,59.03 -197.36,144.03 -13.82,98.41 64.68,175.06 154.87,185.04 103.82,11.47 183.91,-61.32 195.11,-145.5zm-926.15 -1834.77c-89.6,12.49 -164.7,89.48 -148.69,189.58 13.09,81.83 97.41,153.92 200.95,137.97 90.02,-13.86 162.46,-89.26 147.38,-188.44 -13.53,-88.99 -102.58,-152.66 -199.64,-139.12zm285.24 2244.3c10.7,83.92 92.03,156.64 196.23,144.39 90.37,-10.61 167.5,-87.06 153.46,-185.92 -12.02,-84.6 -92.28,-153.69 -196.06,-142.85 -89.64,9.38 -166.02,87.21 -153.63,184.38zm-793.82 -2342c-91.22,8.08 -168.2,86.61 -156.68,183.6 10.09,84.84 91.46,156.8 195.29,145.72 90.64,-9.67 165.76,-85.45 154.88,-182.35 -9.65,-85.87 -90.27,-156.11 -193.49,-146.97zm1085.36 961.1c6.21,86.45 89.85,157.16 190.42,150.25 91.63,-6.31 170.03,-84.99 160.52,-179.98 -8.71,-87.09 -88.77,-158.58 -191.6,-150.23 -92.97,7.55 -166.35,82.66 -159.35,179.96zm-140.77 -589.98c-89.46,11.91 -164.19,87.86 -150.34,186.37 11.85,84.16 94.81,155.18 199.17,141.34 89.33,-11.85 165.28,-89.49 149.68,-188.33 -13.07,-82.72 -94.68,-153.21 -198.52,-139.39zm242.13 1068.74c4.73,87.81 87.93,159.8 188.24,153.81 92.43,-5.51 168.61,-80.21 163.36,-175.18 -4.88,-88.32 -87.55,-162.61 -188.57,-155.31 -94.73,6.84 -168.23,80.34 -163.03,176.68zm-523.84 1179.1c8.79,-37.82 -7.01,-75.99 -25.87,-99.4 -16.42,-20.37 -45.41,-40.87 -82.81,-46.87 -78.36,-12.59 -141.11,38.44 -153.94,99.99 -15.93,76.42 42.93,136.53 107.71,147.32 81.98,13.65 140.66,-39.75 154.92,-101.04zm-772.29 87.05c7.18,60.92 66.79,113.81 141.23,106.29 66.6,-6.73 122.42,-62.35 114.31,-133.7 -7.01,-61.67 -67.33,-114.79 -142.7,-106.56 -65.19,7.13 -121.23,62.84 -112.84,133.97zm-286.79 -94.96c9.45,-58.21 -33.32,-101.86 -82.71,-110.45 -62.34,-10.85 -111.25,31.95 -119.5,78.81 -10.41,59.08 34.4,103.61 85.49,111.15 59.68,8.79 109.08,-32.48 116.72,-79.51zm-617.6 -278.95c5.38,38.59 43.17,73.28 92.88,66.61 107.62,-14.46 86.45,-166.14 -22.5,-153.62 -41.24,4.74 -76.63,42.32 -70.39,87.01zm-261.27 -417.43c2,25.9 26.27,46.28 55.87,44.02 26.45,-2.02 48.46,-24.26 46.16,-51.8 -5.14,-61.7 -107,-56.45 -102.03,7.77z"/>
  <path class="fil1" d="M3822.88 2242.46l0 -2128.74 478.24 0 0 2128.74 -478.24 0zm419.92 0l0 -419.92 892.32 0 0 419.92 -892.32 0z"/>
  <path class="fil2" d="M6202.41 2297.86c-139.98,0 -264.4,-21.87 -373.27,-65.61 -108.86,-43.73 -200.72,-103.51 -275.57,-179.34 -74.84,-75.82 -131.7,-162.81 -170.58,-260.99 -38.89,-98.17 -58.33,-201.69 -58.33,-310.56l0 -67.07c0,-110.81 19.93,-216.28 59.79,-316.39 39.85,-100.12 98.17,-188.09 174.96,-263.91 76.79,-75.81 169.62,-135.59 278.48,-179.34 108.87,-43.74 230.37,-65.61 364.51,-65.61 138.03,0 260.98,21.87 368.88,65.61 107.9,43.74 199.75,103.52 275.57,179.34 75.82,75.82 134.14,163.79 174.97,263.91 40.83,100.12 61.24,205.59 61.24,316.39l0 67.07c0,108.87 -19.44,212.39 -58.32,310.56 -38.88,98.18 -95.75,185.17 -170.59,260.99 -74.84,75.82 -166.7,135.6 -275.57,179.34 -108.87,43.74 -234.26,65.61 -376.17,65.61zm0 -393.66c91.37,0 167.19,-19.44 227.46,-58.32 60.26,-38.89 106.43,-93.32 138.51,-163.3 32.08,-69.99 48.12,-147.75 48.12,-233.29 0,-91.37 -16.52,-171.56 -49.58,-240.57 -33.05,-69.02 -80.19,-123.93 -141.42,-164.76 -61.24,-40.83 -135.6,-61.24 -223.08,-61.24 -85.54,0 -159.42,20.41 -221.62,61.24 -62.22,40.83 -109.36,95.74 -141.43,164.76 -32.08,69.01 -48.11,149.21 -48.11,240.57 0,85.54 15.55,163.3 46.65,233.29 31.11,69.98 77.76,124.41 139.98,163.3 62.21,38.88 137.05,58.32 224.54,58.32z"/>
  <path class="fil2" d="M8374.89 2242.46l0 -472.4 -78.74 0 0 -513.23c0,-81.65 -19.44,-142.88 -58.32,-183.71 -38.88,-40.83 -101.09,-61.24 -186.63,-61.24 -42.77,0 -99.15,0.97 -169.14,2.92 -69.98,1.94 -141.91,4.85 -215.79,8.74 -73.87,3.9 -140.94,7.78 -201.2,11.67l0 -393.66c44.7,-3.9 97.2,-7.78 157.47,-11.67 60.26,-3.89 122.47,-6.8 186.63,-8.75 64.15,-1.94 124.41,-2.92 180.79,-2.92 163.3,0 300.84,23.34 412.62,69.99 111.78,46.66 196.84,117.13 255.16,211.41 58.32,94.29 87.48,215.31 87.48,363.06l0 979.8 -370.34 0zm-510.31 40.83c-114.7,0 -215.31,-20.42 -301.82,-61.24 -86.5,-40.83 -154.06,-99.64 -202.66,-176.43 -48.6,-76.79 -72.9,-168.65 -72.9,-275.57 0,-116.64 30.14,-212.39 90.4,-287.23 60.27,-74.84 144.83,-130.26 253.7,-166.22 108.87,-35.96 234.26,-53.94 376.17,-53.94l341.19 0 0 259.53 -344.1 0c-81.66,0 -144.35,19.92 -188.1,59.78 -43.73,39.85 -65.6,93.8 -65.6,161.84 0,64.15 21.87,116.15 65.6,156.01 43.74,39.85 106.44,59.78 188.1,59.78 52.49,0 99.63,-9.23 141.42,-27.7 41.8,-18.47 76.3,-50.06 103.52,-94.77 27.21,-44.71 42.77,-106.93 46.65,-186.63l110.82 116.64c-9.72,110.82 -36.45,204.13 -80.2,279.94 -43.73,75.82 -104,134.14 -180.79,174.97 -76.79,40.82 -170.59,61.24 -281.4,61.24z"/>
  <path class="fil1" d="M9800.84 2294.94c-112.75,0 -215.3,-20.41 -307.64,-61.24 -92.34,-40.82 -172.53,-97.69 -240.57,-170.58 -68.04,-72.9 -120.05,-158.93 -156.01,-258.07 -35.96,-99.15 -53.95,-206.07 -53.95,-320.77l0 -67.07c0,-114.7 17.01,-221.62 51.04,-320.77 34.01,-99.15 83.59,-186.14 148.72,-260.99 65.12,-74.84 143.37,-133.16 234.75,-174.96 91.37,-41.8 193.43,-62.7 306.18,-62.7 128.31,0 239.11,27.7 332.44,83.1 93.31,55.41 166.21,137.06 218.7,244.96 52.49,107.89 81.65,240.57 87.48,398.04l-122.47 -113.72 0 -1096.45 469.49 0 0 2128.74 -370.34 0 0 -661.95 64.15 0c-5.83,151.63 -37.43,280.91 -94.77,387.84 -57.35,106.92 -134.63,188.09 -231.83,243.49 -97.2,55.4 -208.98,83.1 -335.35,83.1zm116.65 -390.75c71.93,0 137.54,-16.04 196.84,-48.12 59.29,-32.08 106.92,-79.22 142.88,-141.42 35.96,-62.22 53.94,-137.06 53.94,-224.54l0 -107.9c0,-85.53 -18.46,-157.47 -55.4,-215.79 -36.93,-58.32 -85.53,-103.03 -145.8,-134.14 -60.27,-31.11 -125.39,-46.65 -195.38,-46.65 -77.76,0 -147.26,19.92 -208.51,59.78 -61.24,39.85 -109.35,94.28 -144.34,163.3 -34.99,69.01 -52.49,149.21 -52.49,240.57 0,93.31 17.49,173.99 52.49,242.03 34.99,68.05 83.59,120.54 145.8,157.47 62.22,36.94 132.2,55.41 209.96,55.41z"/>
  <path class="fil1" d="M11267.63 2242.46l0 -1598.01 466.57 0 0 1598.01 -466.57 0zm-212.87 -1253.91l0 -344.11 679.44 0 0 344.11 -679.44 0zm393.66 -501.57c-87.48,0 -152.12,-22.84 -193.92,-68.52 -41.8,-45.69 -62.7,-103.52 -62.7,-173.51 0,-71.93 20.9,-130.74 62.7,-176.42 41.8,-45.69 106.44,-68.53 193.92,-68.53 87.48,0 152.12,22.84 193.92,68.53 41.8,45.68 62.7,104.49 62.7,176.42 0,69.99 -20.9,127.82 -62.7,173.51 -41.8,45.68 -106.44,68.52 -193.92,68.52z"/>
  <path class="fil1" d="M12165.78 2242.46l0 -1598.01 370.35 0 0 685.28 -26.25 0c0,-163.3 20.9,-299.38 62.7,-408.25 41.8,-108.87 105.47,-190.52 191,-244.96 85.54,-54.43 189.54,-81.65 312.03,-81.65l20.41 0c186.63,0 329.03,60.75 427.2,182.25 98.18,121.5 147.27,305.7 147.27,552.6l0 912.73 -466.57 0 0 -938.97c0,-85.54 -25.27,-155.53 -75.82,-209.96 -50.55,-54.43 -118.59,-81.65 -204.13,-81.65 -87.48,0 -157.95,27.7 -211.41,83.1 -53.46,55.4 -80.19,127.83 -80.19,217.25l0 930.23 -466.58 0z"/>
  <path class="fil1" d="M14233.69 2878.16l-0.4 -393.67c212.94,-6.86 581.07,25.29 759.64,-40.82 78.73,-29.16 136.57,-73.39 173.5,-132.68 36.93,-59.29 48.37,-135.86 55.4,-228.91l12.2 -161.28c0.59,-7.76 -7.06,14.09 -10.74,21.32 -51.52,101.08 -122.95,178.36 -214.33,231.82 -91.37,53.46 -200.23,80.19 -326.59,80.19 -108.88,0 -207.54,-19.92 -295.99,-59.77 -88.45,-39.86 -163.77,-95.75 -225.99,-167.69 -62.21,-71.92 -109.84,-156 -142.89,-252.23 -33.05,-96.23 -49.57,-200.72 -49.57,-313.48l0 -67.07c0,-112.75 17.5,-217.74 52.49,-314.95 34.99,-97.2 85.54,-181.76 151.63,-253.69 66.09,-71.93 144.84,-127.83 236.21,-167.68 91.38,-39.85 192.45,-59.78 303.28,-59.78 128.3,0 239.6,28.19 333.89,84.56 94.28,56.38 168.65,139.01 223.08,247.86 8.09,16.18 15.62,32.87 22.6,50.02l0 0 0.73 -335.78 370.34 0 0 1408.46c0,196.36 -34.98,354.79 -104.97,475.32 -69.98,120.54 -176.44,209.01 -319.32,265.37 -289.06,114.04 -690.94,74.93 -1004.17,84.56zm594.48 -1017.71c71.93,0 137.05,-16.03 195.37,-48.12 58.33,-32.07 104.49,-78.25 138.52,-138.51 34.01,-60.27 51.04,-133.17 51.04,-218.71l0 -84.56c0,-83.59 -17.99,-154.06 -53.95,-211.41 -35.95,-57.35 -83.11,-101.1 -141.42,-131.21 -58.32,-30.14 -120.54,-45.21 -186.63,-45.21 -77.76,0 -146.78,18.48 -207.05,55.41 -60.27,36.94 -106.93,88.46 -139.97,154.55 -33.06,66.09 -49.58,143.86 -49.58,233.29 0,91.37 17.01,169.62 51.03,234.74 34.02,65.13 80.68,114.7 139.98,148.73 59.3,34.01 126.85,51.03 202.67,51.03z"/>
  <polygon class="fil1" points="3943.85,2878.16 3828.39,2455.82 3880.36,2455.82 3968.63,2799.77 3972.7,2799.77 4062.6,2455.82 4120.37,2455.82 4210.28,2799.77 4214.35,2799.77 4302.61,2455.82 4354.58,2455.82 4239.12,2878.16 4186.38,2878.16 4093.18,2541.66 4089.89,2541.66 3996.59,2878.16 "/>
  <path id="_1" class="fil1" d="M4514.56 2884.75c-30.49,0 -56.81,-6.77 -78.87,-20.33 -22.07,-13.55 -39.01,-32.52 -50.91,-56.9 -11.91,-24.38 -17.81,-52.85 -17.81,-85.26 0,-32.43 5.9,-61.07 17.81,-85.84 11.9,-24.87 28.55,-44.23 49.94,-58.17 21.39,-13.94 46.35,-20.9 74.9,-20.9 16.55,0 32.81,2.71 48.87,8.22 16.07,5.52 30.78,14.43 43.94,26.71 13.16,12.29 23.71,28.55 31.55,48.78 7.84,20.23 11.81,45.09 11.81,74.61l0 20.62 -244.18 0 0 -42.11 194.63 0c0,-17.8 -3.49,-33.78 -10.65,-47.8 -7.06,-14.04 -17.03,-25.07 -30.1,-33.2 -12.97,-8.13 -28.26,-12.2 -45.87,-12.2 -19.36,0 -36.1,4.84 -50.23,14.33 -14.04,9.58 -24.87,21.97 -32.42,37.26 -7.55,15.28 -11.33,31.65 -11.33,49.06l0 28.07c0,23.91 4.17,44.13 12.49,60.68 8.22,16.64 19.84,29.23 34.74,37.74 14.8,8.62 32.03,12.88 51.68,12.88 12.78,0 24.38,-1.75 34.74,-5.42 10.45,-3.68 19.36,-9.09 26.9,-16.45 7.65,-7.35 13.46,-16.54 17.61,-27.58l46.94 13.17c-4.93,15.96 -13.26,30 -24.87,42 -11.71,12.01 -26.12,21.39 -43.36,28.07 -17.13,6.67 -36.48,9.97 -57.97,9.97z"/>
  <path id="_2" class="fil1" d="M4726.5 2878.16l0 -422.34 48.68 0 0 155.91 4.17 0c3.58,-5.51 8.51,-12.48 14.9,-21.1 6.38,-8.61 15.67,-16.35 27.67,-23.13 12.01,-6.77 28.36,-10.16 48.97,-10.16 26.62,0 50.14,6.67 70.56,19.94 20.32,13.35 36.19,32.23 47.61,56.71 11.42,24.48 17.13,53.33 17.13,86.61 0,33.59 -5.71,62.62 -17.13,87.1 -11.42,24.58 -27.19,43.56 -47.42,56.91 -20.23,13.45 -43.55,20.13 -69.97,20.13 -20.33,0 -36.58,-3.39 -48.87,-10.16 -12.2,-6.87 -21.59,-14.61 -28.17,-23.33 -6.67,-8.71 -11.71,-15.97 -15.28,-21.78l-5.81 0 0 48.68 -47.03 0zm47.91 -158.33c0,23.91 3.48,44.9 10.45,63.19 7.06,18.19 17.32,32.42 30.78,42.68 13.45,10.26 30,15.29 49.45,15.29 20.33,0 37.36,-5.32 51.1,-16.16 13.65,-10.74 23.91,-25.35 30.88,-43.65 6.96,-18.39 10.45,-38.81 10.45,-61.36 0,-22.26 -3.39,-42.4 -10.26,-60.4 -6.77,-17.9 -17.03,-32.13 -30.68,-42.68 -13.75,-10.45 -30.87,-15.77 -51.49,-15.77 -19.74,0 -36.38,5.03 -49.84,15 -13.55,9.97 -23.72,23.81 -30.58,41.61 -6.87,17.81 -10.26,38.52 -10.26,62.24z"/>
  <path id="_3" class="fil1" d="M5380.62 2878.16l-130.37 0 0 -422.34 136.17 0c40.94,0 75.97,8.42 105.1,25.26 29.13,16.84 51.49,41.03 67.07,72.39 15.48,31.46 23.32,69.01 23.32,112.75 0,43.93 -7.83,81.78 -23.52,113.51 -15.67,31.65 -38.52,55.94 -68.52,72.97 -29.9,16.93 -66.39,25.45 -109.26,25.45zm-79.17 -45.39l75.87 0c34.94,0 63.87,-6.67 86.81,-20.22 22.94,-13.46 40.07,-32.62 51.3,-57.49 11.32,-24.87 16.93,-54.48 16.93,-88.84 0,-34.16 -5.51,-63.49 -16.64,-88.17 -11.13,-24.67 -27.78,-43.65 -49.94,-56.9 -22.17,-13.27 -49.75,-19.94 -82.64,-19.94l-81.69 0 0 331.56z"/>
  <path id="_4" class="fil1" d="M5793.87 2884.75c-30.49,0 -56.81,-6.77 -78.87,-20.33 -22.07,-13.55 -39.01,-32.52 -50.91,-56.9 -11.91,-24.38 -17.81,-52.85 -17.81,-85.26 0,-32.43 5.9,-61.07 17.81,-85.84 11.9,-24.87 28.55,-44.23 49.94,-58.17 21.39,-13.94 46.35,-20.9 74.9,-20.9 16.55,0 32.81,2.71 48.87,8.22 16.07,5.52 30.78,14.43 43.94,26.71 13.16,12.29 23.71,28.55 31.55,48.78 7.84,20.23 11.81,45.09 11.81,74.61l0 20.62 -244.18 0 0 -42.11 194.63 0c0,-17.8 -3.49,-33.78 -10.65,-47.8 -7.06,-14.04 -17.03,-25.07 -30.1,-33.2 -12.97,-8.13 -28.26,-12.2 -45.87,-12.2 -19.36,0 -36.1,4.84 -50.23,14.33 -14.04,9.58 -24.87,21.97 -32.42,37.26 -7.55,15.28 -11.33,31.65 -11.33,49.06l0 28.07c0,23.91 4.17,44.13 12.49,60.68 8.22,16.64 19.84,29.23 34.74,37.74 14.8,8.62 32.03,12.88 51.68,12.88 12.78,0 24.38,-1.75 34.74,-5.42 10.45,-3.68 19.36,-9.09 26.9,-16.45 7.65,-7.35 13.46,-16.54 17.61,-27.58l46.94 13.17c-4.93,15.96 -13.26,30 -24.87,42 -11.71,12.01 -26.12,21.39 -43.36,28.07 -17.13,6.67 -36.48,9.97 -57.97,9.97z"/>
  <polygon id="_5" class="fil1" points="6248.34,2561.41 6131.24,2878.16 6081.78,2878.16 5964.68,2561.41 6017.43,2561.41 6104.82,2813.81 6108.2,2813.81 6195.59,2561.41 "/>
  <path id="_6" class="fil1" d="M6433.96 2884.75c-30.49,0 -56.81,-6.77 -78.87,-20.33 -22.07,-13.55 -39.01,-32.52 -50.91,-56.9 -11.91,-24.38 -17.81,-52.85 -17.81,-85.26 0,-32.43 5.9,-61.07 17.81,-85.84 11.9,-24.87 28.55,-44.23 49.94,-58.17 21.39,-13.94 46.35,-20.9 74.9,-20.9 16.55,0 32.81,2.71 48.87,8.22 16.07,5.52 30.78,14.43 43.94,26.71 13.16,12.29 23.71,28.55 31.55,48.78 7.84,20.23 11.81,45.09 11.81,74.61l0 20.62 -244.18 0 0 -42.11 194.63 0c0,-17.8 -3.49,-33.78 -10.65,-47.8 -7.06,-14.04 -17.03,-25.07 -30.1,-33.2 -12.97,-8.13 -28.26,-12.2 -45.87,-12.2 -19.36,0 -36.1,4.84 -50.23,14.33 -14.04,9.58 -24.87,21.97 -32.42,37.26 -7.55,15.28 -11.33,31.65 -11.33,49.06l0 28.07c0,23.91 4.17,44.13 12.49,60.68 8.22,16.64 19.84,29.23 34.74,37.74 14.8,8.62 32.03,12.88 51.68,12.88 12.78,0 24.38,-1.75 34.74,-5.42 10.45,-3.68 19.36,-9.09 26.9,-16.45 7.65,-7.35 13.46,-16.54 17.61,-27.58l46.94 13.17c-4.93,15.96 -13.26,30 -24.87,42 -11.71,12.01 -26.12,21.39 -43.36,28.07 -17.13,6.67 -36.48,9.97 -57.97,9.97z"/>
  <polygon id="_7" class="fil1" points="6688,2455.82 6688,2878.16 6639.32,2878.16 6639.32,2455.82 "/>
  <path id="_8" class="fil1" d="M6905.75 2884.75c-28.64,0 -53.71,-6.77 -75.19,-20.42 -21.49,-13.56 -38.23,-32.62 -50.33,-57.1 -12,-24.48 -18,-53.04 -18,-85.75 0,-33 6,-61.84 18,-86.42 12.1,-24.58 28.84,-43.74 50.33,-57.29 21.48,-13.65 46.55,-20.42 75.19,-20.42 28.55,0 53.61,6.77 75.1,20.42 21.58,13.55 38.32,32.71 50.33,57.29 12.1,24.58 18.09,53.42 18.09,86.42 0,32.72 -5.99,61.27 -18.09,85.75 -12.01,24.48 -28.75,43.55 -50.33,57.1 -21.49,13.65 -46.55,20.42 -75.1,20.42zm0 -43.74c21.68,0 39.59,-5.51 53.61,-16.64 14.04,-11.14 24.39,-25.74 31.07,-43.94 6.77,-18.09 10.16,-37.84 10.16,-58.94 0,-21.19 -3.39,-40.94 -10.16,-59.23 -6.67,-18.29 -17.03,-33 -31.07,-44.32 -14.03,-11.22 -31.94,-16.93 -53.61,-16.93 -21.78,0 -39.58,5.71 -53.61,16.93 -14.04,11.33 -24.38,26.03 -31.16,44.32 -6.77,18.29 -10.07,38.04 -10.07,59.23 0,21.1 3.3,40.85 10.07,58.94 6.77,18.2 17.12,32.81 31.16,43.94 14.04,11.13 31.84,16.64 53.61,16.64z"/>
  <path id="_9" class="fil1" d="M7123.5 2996.91l0 -435.5 47.04 0 0 50.32 5.8 0c3.58,-5.51 8.51,-12.48 14.9,-21.1 6.38,-8.61 15.58,-16.35 27.68,-23.13 12,-6.77 28.35,-10.16 48.97,-10.16 26.61,0 50.13,6.67 70.45,19.94 20.43,13.35 36.29,32.23 47.71,56.71 11.33,24.48 17.04,53.33 17.04,86.61 0,33.59 -5.71,62.62 -17.04,87.1 -11.42,24.58 -27.28,43.56 -47.42,56.91 -20.22,13.45 -43.55,20.13 -69.97,20.13 -20.32,0 -36.58,-3.39 -48.87,-10.16 -12.2,-6.87 -21.59,-14.61 -28.26,-23.33 -6.58,-8.71 -11.62,-15.97 -15.19,-21.78l-4.17 0 0 167.43 -48.68 0zm47.91 -277.07c0,23.91 3.49,44.9 10.45,63.19 7.06,18.19 17.23,32.42 30.78,42.68 13.46,10.26 29.9,15.29 49.45,15.29 20.33,0 37.36,-5.32 51.01,-16.16 13.75,-10.74 24,-25.35 30.97,-43.65 6.96,-18.39 10.45,-38.81 10.45,-61.36 0,-22.26 -3.49,-42.4 -10.26,-60.4 -6.77,-17.9 -17.03,-32.13 -30.68,-42.68 -13.74,-10.45 -30.87,-15.77 -51.49,-15.77 -19.74,0 -36.38,5.03 -49.94,15 -13.45,9.97 -23.61,23.81 -30.48,41.61 -6.87,17.81 -10.26,38.52 -10.26,62.24z"/>
  <path id="_10" class="fil1" d="M7477.32 2878.16l0 -316.75 47.04 0 0 49.55 4.16 0c6.58,-16.93 17.23,-30.1 31.94,-39.49 14.71,-9.48 32.33,-14.13 52.94,-14.13 20.91,0 38.33,4.65 52.37,14.13 13.94,9.39 24.77,22.56 32.61,39.49l3.3 0c8.13,-16.35 20.32,-29.42 36.58,-39.1 16.16,-9.68 35.61,-14.52 58.36,-14.52 28.25,0 51.48,8.8 69.48,26.42 18,17.7 27,45.19 27,82.46l0 211.94 -48.68 0 0 -211.94c0,-23.43 -6.38,-40.07 -19.16,-50.14 -12.78,-10.06 -27.87,-15.09 -45.19,-15.09 -22.26,0 -39.49,6.77 -51.78,20.13 -12.2,13.46 -18.29,30.39 -18.29,50.81l0 206.24 -49.55 0 0 -216.88c0,-18.1 -5.8,-32.62 -17.52,-43.66 -11.71,-11.03 -26.71,-16.64 -45.09,-16.64 -12.68,0 -24.48,3.39 -35.42,10.16 -10.94,6.68 -19.74,16.06 -26.42,27.87 -6.58,11.91 -9.97,25.65 -9.97,41.23l0 197.92 -48.68 0z"/>
  <path id="_11" class="fil1" d="M8114.91 2884.75c-30.49,0 -56.81,-6.77 -78.87,-20.33 -22.07,-13.55 -39.01,-32.52 -50.91,-56.9 -11.91,-24.38 -17.81,-52.85 -17.81,-85.26 0,-32.43 5.9,-61.07 17.81,-85.84 11.9,-24.87 28.55,-44.23 49.94,-58.17 21.39,-13.94 46.35,-20.9 74.9,-20.9 16.55,0 32.81,2.71 48.87,8.22 16.07,5.52 30.78,14.43 43.94,26.71 13.16,12.29 23.71,28.55 31.55,48.78 7.84,20.23 11.81,45.09 11.81,74.61l0 20.62 -244.18 0 0 -42.11 194.63 0c0,-17.8 -3.49,-33.78 -10.65,-47.8 -7.06,-14.04 -17.03,-25.07 -30.1,-33.2 -12.97,-8.13 -28.26,-12.2 -45.87,-12.2 -19.36,0 -36.1,4.84 -50.23,14.33 -14.04,9.58 -24.87,21.97 -32.42,37.26 -7.55,15.28 -11.33,31.65 -11.33,49.06l0 28.07c0,23.91 4.17,44.13 12.49,60.68 8.22,16.64 19.84,29.23 34.74,37.74 14.8,8.62 32.03,12.88 51.68,12.88 12.78,0 24.38,-1.75 34.74,-5.42 10.45,-3.68 19.36,-9.09 26.9,-16.45 7.65,-7.35 13.46,-16.54 17.61,-27.58l46.94 13.17c-4.93,15.96 -13.26,30 -24.87,42 -11.71,12.01 -26.12,21.39 -43.36,28.07 -17.13,6.67 -36.48,9.97 -57.97,9.97z"/>
  <path id="_12" class="fil1" d="M8368.94 2687.61l0 190.55 -48.68 0 0 -316.75 47.04 0 0 49.55 4.16 0c7.36,-16.16 18.68,-29.03 33.78,-38.91 15.1,-9.87 34.65,-14.7 58.55,-14.7 21.49,0 40.27,4.36 56.33,13.07 16.06,8.71 28.55,21.97 37.55,39.58 8.9,17.71 13.36,39.97 13.36,66.87l0 201.3 -48.68 0 0 -197.92c0,-24.96 -6.39,-44.32 -19.36,-58.26 -12.97,-14.03 -30.68,-21 -53.23,-21 -15.48,0 -29.33,3.39 -41.52,10.16 -12.2,6.68 -21.78,16.55 -28.75,29.42 -7.06,12.98 -10.55,28.65 -10.55,47.04z"/>
  <path id="_13" class="fil1" d="M8797.87 2561.41l0 41.23 -164.14 0 0 -41.23 164.14 0zm-116.33 -75.88l48.68 0 0 301.86c0,13.84 2.04,24.1 6,30.87 4.07,6.77 9.29,11.33 15.67,13.65 6.48,2.23 13.17,3.39 20.33,3.39 5.41,0 9.77,-0.29 13.26,-0.97 3.39,-0.58 6.19,-1.16 8.22,-1.55l9.87 43.74c-3.29,1.26 -7.83,2.52 -13.84,3.78 -5.9,1.36 -13.36,2.04 -22.45,2.04 -13.75,0 -27.2,-3.01 -40.27,-8.91 -13.16,-5.9 -24,-14.9 -32.61,-27 -8.62,-12.1 -12.88,-27.38 -12.88,-45.77l0 -315.12z"/>
  <path id="_14" class="fil1" d="M9175.69 2561.41l0 41.23 -170.81 0 0 -41.23 170.81 0zm-119.62 316.75l0 -360.4c0,-18.2 4.26,-33.3 12.78,-45.39 8.51,-12.1 19.55,-21.2 33.2,-27.19 13.65,-6.1 27.97,-9.1 43.07,-9.1 12,0 21.78,0.97 29.32,2.91 7.55,1.93 13.17,3.68 16.94,5.31l-14.04 42.11c-2.52,-0.88 -5.9,-1.84 -10.26,-3.1 -4.36,-1.26 -9.97,-1.84 -17.03,-1.84 -16.06,0 -27.58,3.97 -34.74,12.1 -7.06,8.12 -10.55,20.03 -10.55,35.7l0 348.89 -48.68 0z"/>
  <path id="_15" class="fil1" d="M9359.57 2884.75c-28.64,0 -53.71,-6.77 -75.19,-20.42 -21.49,-13.56 -38.23,-32.62 -50.33,-57.1 -12,-24.48 -18,-53.04 -18,-85.75 0,-33 6,-61.84 18,-86.42 12.1,-24.58 28.84,-43.74 50.33,-57.29 21.48,-13.65 46.55,-20.42 75.19,-20.42 28.55,0 53.61,6.77 75.1,20.42 21.58,13.55 38.32,32.71 50.33,57.29 12.1,24.58 18.09,53.42 18.09,86.42 0,32.72 -5.99,61.27 -18.09,85.75 -12.01,24.48 -28.75,43.55 -50.33,57.1 -21.49,13.65 -46.55,20.42 -75.1,20.42zm0 -43.74c21.68,0 39.59,-5.51 53.61,-16.64 14.04,-11.14 24.39,-25.74 31.07,-43.94 6.77,-18.09 10.16,-37.84 10.16,-58.94 0,-21.19 -3.39,-40.94 -10.16,-59.23 -6.67,-18.29 -17.03,-33 -31.07,-44.32 -14.03,-11.22 -31.94,-16.93 -53.61,-16.93 -21.78,0 -39.58,5.71 -53.61,16.93 -14.04,11.33 -24.38,26.03 -31.16,44.32 -6.77,18.29 -10.07,38.04 -10.07,59.23 0,21.1 3.3,40.85 10.07,58.94 6.77,18.2 17.12,32.81 31.16,43.94 14.04,11.13 31.84,16.64 53.61,16.64z"/>
  <path id="_16" class="fil1" d="M9577.32 2878.16l0 -316.75 47.04 0 0 47.9 3.29 0c5.8,-15.67 16.26,-28.45 31.36,-38.22 15.09,-9.68 32.13,-14.61 51.1,-14.61 3.59,0 8.03,0.09 13.46,0.19 5.32,0.19 9.38,0.39 12.19,0.68l0 49.45c-1.64,-0.38 -5.41,-1.06 -11.32,-1.93 -5.8,-0.88 -11.91,-1.36 -18.39,-1.36 -15.38,0 -29.13,3.2 -41.13,9.58 -12.1,6.38 -21.58,15.19 -28.45,26.42 -6.97,11.13 -10.46,23.91 -10.46,38.22l0 200.43 -48.68 0z"/>
  <path id="_17" class="fil1" d="M10194.38 2561.41c-2.52,-20.91 -12.49,-37.07 -30.1,-48.68 -17.61,-11.52 -39.19,-17.32 -64.74,-17.32 -18.77,0 -35.03,3.1 -48.97,9.09 -14.04,6.1 -24.87,14.43 -32.62,24.97 -7.74,10.55 -11.61,22.65 -11.61,36.09 0,11.23 2.71,20.91 8.12,28.94 5.42,8.03 12.39,14.71 20.91,20.03 8.51,5.32 17.42,9.58 26.8,12.98 9.39,3.39 17.91,6.09 25.74,8.12l42.98 11.62c10.94,2.81 23.23,6.87 36.77,11.9 13.55,5.13 26.52,12.01 39,20.72 12.39,8.8 22.65,19.93 30.78,33.58 8.13,13.56 12.2,30.3 12.2,50.04 0,22.84 -6,43.46 -17.81,61.94 -11.9,18.39 -29.23,33.01 -51.97,43.84 -22.84,10.93 -50.43,16.35 -82.84,16.35 -30.2,0 -56.42,-4.93 -78.49,-14.71 -22.07,-9.67 -39.39,-23.32 -51.97,-40.74 -12.59,-17.52 -19.65,-37.74 -21.29,-60.88l52.74 0c1.46,15.97 6.78,29.13 16.26,39.49 9.39,10.35 21.29,18.09 35.8,23.13 14.53,4.93 30.2,7.45 46.94,7.45 19.55,0 37.07,-3.2 52.56,-9.58 15.57,-6.38 27.87,-15.29 36.96,-26.8 9.1,-11.43 13.56,-24.87 13.56,-40.27 0,-14.03 -3.88,-25.44 -11.72,-34.25 -7.83,-8.81 -18.19,-15.97 -30.97,-21.49 -12.78,-5.41 -26.51,-10.26 -41.42,-14.42l-51.97 -14.81c-33.01,-9.48 -59.14,-23.03 -78.3,-40.64 -19.26,-17.62 -28.94,-40.65 -28.94,-69.11 0,-23.61 6.48,-44.22 19.26,-61.94 12.88,-17.61 30.2,-31.36 51.98,-41.23 21.87,-9.87 46.16,-14.7 73.16,-14.7 27.19,0 51.39,4.84 72.59,14.52 21.09,9.68 37.93,22.94 50.42,39.68 12.39,16.74 18.97,35.8 19.65,57.1l-49.46 0z"/>
  <path id="_18" class="fil1" d="M10327.16 2878.16l0 -316.75 47.04 0 0 49.55 4.16 0c6.58,-16.93 17.23,-30.1 31.94,-39.49 14.71,-9.48 32.33,-14.13 52.94,-14.13 20.91,0 38.33,4.65 52.37,14.13 13.94,9.39 24.77,22.56 32.61,39.49l3.3 0c8.13,-16.35 20.32,-29.42 36.58,-39.1 16.16,-9.68 35.61,-14.52 58.36,-14.52 28.25,0 51.48,8.8 69.48,26.42 18,17.7 27,45.19 27,82.46l0 211.94 -48.68 0 0 -211.94c0,-23.43 -6.38,-40.07 -19.16,-50.14 -12.78,-10.06 -27.87,-15.09 -45.19,-15.09 -22.26,0 -39.49,6.77 -51.78,20.13 -12.2,13.46 -18.29,30.39 -18.29,50.81l0 206.24 -49.55 0 0 -216.88c0,-18.1 -5.8,-32.62 -17.52,-43.66 -11.71,-11.03 -26.71,-16.64 -45.09,-16.64 -12.68,0 -24.48,3.39 -35.42,10.16 -10.94,6.68 -19.74,16.06 -26.42,27.87 -6.58,11.91 -9.97,25.65 -9.97,41.23l0 197.92 -48.68 0z"/>
  <path id="_19" class="fil1" d="M10925.16 2885.62c-20.04,0 -38.23,-3.88 -54.58,-11.52 -16.35,-7.55 -29.42,-18.68 -39,-33.2 -9.58,-14.42 -14.43,-32.03 -14.43,-52.65 0,-18.1 3.59,-32.91 10.75,-44.22 7.06,-11.33 16.64,-20.23 28.64,-26.71 11.91,-6.48 25.16,-11.33 39.68,-14.52 14.52,-3.3 29.13,-5.81 43.84,-7.74 19.26,-2.52 34.83,-4.36 46.84,-5.71 12.1,-1.26 20.9,-3.49 26.41,-6.67 5.61,-3.2 8.33,-8.62 8.33,-16.45l0 -1.65c0,-20.42 -5.52,-36.19 -16.55,-47.42 -11.03,-11.33 -27.77,-16.93 -50.23,-16.93 -23.23,0 -41.42,5.02 -54.58,15.28 -13.26,10.16 -22.55,21 -27.87,32.52l-46.16 -16.45c8.22,-19.25 19.26,-34.25 33.1,-45.09 13.75,-10.74 28.94,-18.39 45.29,-22.65 16.45,-4.36 32.62,-6.48 48.58,-6.48 10.16,0 21.88,1.16 35.13,3.58 13.26,2.42 26.13,7.36 38.61,14.71 12.39,7.45 22.75,18.68 30.97,33.68 8.33,14.9 12.4,35.03 12.4,60.2l0 208.65 -48.68 0 0 -42.88 -2.43 0c-3.29,6.87 -8.8,14.23 -16.54,22.07 -7.65,7.84 -17.91,14.52 -30.68,19.94 -12.78,5.51 -28.36,8.32 -46.84,8.32zm7.45 -43.74c19.26,0 35.51,-3.78 48.77,-11.32 13.27,-7.55 23.33,-17.33 30.1,-29.33 6.77,-11.9 10.17,-24.48 10.17,-37.74l0 -44.51c-2.04,2.51 -6.49,4.74 -13.46,6.67 -6.97,2.03 -14.9,3.78 -23.91,5.22 -9,1.45 -17.71,2.62 -26.22,3.68 -8.42,1.07 -15.29,1.94 -20.52,2.62 -12.68,1.65 -24.39,4.26 -35.32,7.93 -10.94,3.59 -19.75,9 -26.42,16.26 -6.67,7.25 -9.97,17.03 -9.97,29.42 0,16.84 6.29,29.61 18.87,38.23 12.59,8.61 28.55,12.87 47.91,12.87z"/>
  <polygon id="_20" class="fil1" points="11208.14,2455.82 11208.14,2878.16 11159.46,2878.16 11159.46,2455.82 "/>
  <polygon id="_21" class="fil1" points="11345.86,2455.82 11345.86,2878.16 11297.18,2878.16 11297.18,2455.82 "/>
  <path id="_22" class="fil1" d="M11604.84 2878.16l0 -422.34 147.69 0c29.42,0 53.71,5.13 72.77,15.19 19.16,10.07 33.39,23.62 42.68,40.65 9.39,16.94 14.04,35.71 14.04,56.32 0,18.2 -3.2,33.2 -9.58,45 -6.38,11.81 -14.8,21.2 -25.16,28.07 -10.35,6.87 -21.58,11.9 -33.68,15.19l0 4.16c12.87,0.78 25.83,5.32 38.9,13.65 13.07,8.23 24.01,20.04 32.82,35.42 8.8,15.38 13.26,34.26 13.26,56.52 0,21.19 -4.85,40.16 -14.52,57.1 -9.59,16.93 -24.78,30.29 -45.58,40.26 -20.72,9.87 -47.71,14.8 -81.01,14.8l-152.62 0zm51.2 -45.39l101.43 0c33.39,0 57.19,-6.48 71.23,-19.45 14.14,-12.97 21.2,-28.74 21.2,-47.32 0,-14.33 -3.68,-27.58 -10.94,-39.68 -7.35,-12.2 -17.71,-21.97 -31.16,-29.33 -13.46,-7.35 -29.43,-11.03 -47.81,-11.03l-103.94 0 0 146.81zm0 -191.32l94.84 0c15.38,0 29.33,-3.01 41.72,-9.1 12.48,-6 22.35,-14.52 29.71,-25.55 7.35,-11.03 11.03,-23.91 11.03,-38.81 0,-18.48 -6.48,-34.25 -19.35,-47.32 -12.98,-12.97 -33.4,-19.45 -61.46,-19.45l-96.49 0 0 140.24z"/>
  <path id="_23" class="fil1" d="M12175.64 2748.68l0 -187.27 48.68 0 0 316.75 -48.68 0 0 -53.61 -3.29 0c-7.45,16.06 -18.97,29.71 -34.64,40.94 -15.68,11.23 -35.52,16.84 -59.43,16.84 -19.74,0 -37.35,-4.36 -52.74,-13.17 -15.48,-8.71 -27.58,-21.87 -36.29,-39.58 -8.81,-17.61 -13.27,-39.97 -13.27,-66.88l0 -201.29 48.68 0 0 198.01c0,23.04 6.48,41.52 19.46,55.26 13.06,13.74 29.61,20.61 49.84,20.61 12.1,0 24.38,-3.1 36.97,-9.29 12.58,-6.19 23.23,-15.67 31.84,-28.45 8.51,-12.78 12.87,-29.13 12.87,-48.87z"/>
  <path id="_24" class="fil1" d="M12537.7 2632.35l-43.65 12.39c-2.81,-7.26 -6.78,-14.43 -12.1,-21.29 -5.32,-6.97 -12.49,-12.68 -21.59,-17.23 -9,-4.55 -20.61,-6.87 -34.83,-6.87 -19.36,0 -35.52,4.46 -48.3,13.36 -12.87,8.81 -19.35,20.13 -19.35,33.69 0,12.1 4.45,21.68 13.26,28.64 8.81,7.06 22.55,12.88 41.23,17.52l47.03 11.61c28.26,6.87 49.36,17.32 63.29,31.46 13.85,14.04 20.81,32.13 20.81,54.29 0,18.19 -5.22,34.35 -15.58,48.68 -10.35,14.32 -24.86,25.54 -43.36,33.78 -18.58,8.32 -40.16,12.39 -64.74,12.39 -32.33,0 -59.04,-6.97 -80.23,-21 -21.2,-14.04 -34.55,-34.55 -40.26,-61.46l46.25 -11.52c4.36,17.03 12.69,29.81 25.07,38.32 12.29,8.52 28.35,12.78 48.29,12.78 22.65,0 40.74,-4.84 54.09,-14.52 13.46,-9.68 20.13,-21.39 20.13,-34.93 0,-11.04 -3.87,-20.33 -11.51,-27.78 -7.74,-7.45 -19.55,-13.07 -35.52,-16.84l-52.75 -12.29c-29.03,-6.87 -50.32,-17.61 -63.77,-32.13 -13.55,-14.52 -20.32,-32.62 -20.32,-54.48 0,-17.91 5.02,-33.69 15.09,-47.43 10.16,-13.74 23.91,-24.57 41.42,-32.42 17.61,-7.84 37.45,-11.71 59.72,-11.71 31.35,0 56.03,6.87 73.93,20.61 18,13.75 30.68,31.85 38.23,54.39z"/>
  <path id="_25" class="fil1" d="M12616.86 2878.16l0 -316.75 48.68 0 0 316.75 -48.68 0zm24.77 -369.5c-9.48,0 -17.61,-3.3 -24.48,-9.68 -6.77,-6.48 -10.16,-14.23 -10.16,-23.33 0,-9.09 3.39,-16.83 10.16,-23.32 6.87,-6.49 15,-9.68 24.48,-9.68 9.49,0 17.62,3.19 24.39,9.68 6.87,6.48 10.26,14.23 10.26,23.32 0,9.1 -3.39,16.84 -10.26,23.33 -6.77,6.38 -14.9,9.68 -24.39,9.68z"/>
  <path id="_26" class="fil1" d="M12803.25 2687.61l0 190.55 -48.68 0 0 -316.75 47.04 0 0 49.55 4.16 0c7.36,-16.16 18.68,-29.03 33.78,-38.91 15.1,-9.87 34.65,-14.7 58.55,-14.7 21.49,0 40.27,4.36 56.33,13.07 16.06,8.71 28.55,21.97 37.55,39.58 8.9,17.71 13.36,39.97 13.36,66.87l0 201.3 -48.68 0 0 -197.92c0,-24.96 -6.39,-44.32 -19.36,-58.26 -12.97,-14.03 -30.68,-21 -53.23,-21 -15.48,0 -29.33,3.39 -41.52,10.16 -12.2,6.68 -21.78,16.55 -28.75,29.42 -7.06,12.98 -10.55,28.65 -10.55,47.04z"/>
  <path id="_27" class="fil1" d="M13227.15 2884.75c-30.49,0 -56.81,-6.77 -78.87,-20.33 -22.07,-13.55 -39.01,-32.52 -50.91,-56.9 -11.91,-24.38 -17.81,-52.85 -17.81,-85.26 0,-32.43 5.9,-61.07 17.81,-85.84 11.9,-24.87 28.55,-44.23 49.94,-58.17 21.39,-13.94 46.35,-20.9 74.9,-20.9 16.55,0 32.81,2.71 48.87,8.22 16.07,5.52 30.78,14.43 43.94,26.71 13.16,12.29 23.71,28.55 31.55,48.78 7.84,20.23 11.81,45.09 11.81,74.61l0 20.62 -244.18 0 0 -42.11 194.63 0c0,-17.8 -3.49,-33.78 -10.65,-47.8 -7.06,-14.04 -17.03,-25.07 -30.1,-33.2 -12.97,-8.13 -28.26,-12.2 -45.87,-12.2 -19.36,0 -36.1,4.84 -50.23,14.33 -14.04,9.58 -24.87,21.97 -32.42,37.26 -7.55,15.28 -11.33,31.65 -11.33,49.06l0 28.07c0,23.91 4.17,44.13 12.49,60.68 8.22,16.64 19.84,29.23 34.74,37.74 14.8,8.62 32.03,12.88 51.68,12.88 12.78,0 24.38,-1.75 34.74,-5.42 10.45,-3.68 19.36,-9.09 26.9,-16.45 7.65,-7.35 13.46,-16.54 17.61,-27.58l46.94 13.17c-4.93,15.96 -13.26,30 -24.87,42 -11.71,12.01 -26.12,21.39 -43.36,28.07 -17.13,6.67 -36.48,9.97 -57.97,9.97z"/>
  <path id="_28" class="fil1" d="M13656.84 2632.35l-43.65 12.39c-2.81,-7.26 -6.78,-14.43 -12.1,-21.29 -5.32,-6.97 -12.49,-12.68 -21.59,-17.23 -9,-4.55 -20.61,-6.87 -34.83,-6.87 -19.36,0 -35.52,4.46 -48.3,13.36 -12.87,8.81 -19.35,20.13 -19.35,33.69 0,12.1 4.45,21.68 13.26,28.64 8.81,7.06 22.55,12.88 41.23,17.52l47.03 11.61c28.26,6.87 49.36,17.32 63.29,31.46 13.85,14.04 20.81,32.13 20.81,54.29 0,18.19 -5.22,34.35 -15.58,48.68 -10.35,14.32 -24.86,25.54 -43.36,33.78 -18.58,8.32 -40.16,12.39 -64.74,12.39 -32.33,0 -59.04,-6.97 -80.23,-21 -21.2,-14.04 -34.55,-34.55 -40.26,-61.46l46.25 -11.52c4.36,17.03 12.69,29.81 25.07,38.32 12.29,8.52 28.35,12.78 48.29,12.78 22.65,0 40.74,-4.84 54.09,-14.52 13.46,-9.68 20.13,-21.39 20.13,-34.93 0,-11.04 -3.87,-20.33 -11.51,-27.78 -7.74,-7.45 -19.55,-13.07 -35.52,-16.84l-52.75 -12.29c-29.03,-6.87 -50.32,-17.61 -63.77,-32.13 -13.55,-14.52 -20.32,-32.62 -20.32,-54.48 0,-17.91 5.02,-33.69 15.09,-47.43 10.16,-13.74 23.91,-24.57 41.42,-32.42 17.61,-7.84 37.45,-11.71 59.72,-11.71 31.35,0 56.03,6.87 73.93,20.61 18,13.75 30.68,31.85 38.23,54.39z"/>
  <path id="_29" class="fil1" d="M13960.34 2632.35l-43.65 12.39c-2.81,-7.26 -6.78,-14.43 -12.1,-21.29 -5.32,-6.97 -12.49,-12.68 -21.59,-17.23 -9,-4.55 -20.61,-6.87 -34.83,-6.87 -19.36,0 -35.52,4.46 -48.3,13.36 -12.87,8.81 -19.35,20.13 -19.35,33.69 0,12.1 4.45,21.68 13.26,28.64 8.81,7.06 22.55,12.88 41.23,17.52l47.03 11.61c28.26,6.87 49.36,17.32 63.29,31.46 13.85,14.04 20.81,32.13 20.81,54.29 0,18.19 -5.22,34.35 -15.58,48.68 -10.35,14.32 -24.86,25.54 -43.36,33.78 -18.58,8.32 -40.16,12.39 -64.74,12.39 -32.33,0 -59.04,-6.97 -80.23,-21 -21.2,-14.04 -34.55,-34.55 -40.26,-61.46l46.25 -11.52c4.36,17.03 12.69,29.81 25.07,38.32 12.29,8.52 28.35,12.78 48.29,12.78 22.65,0 40.74,-4.84 54.09,-14.52 13.46,-9.68 20.13,-21.39 20.13,-34.93 0,-11.04 -3.87,-20.33 -11.51,-27.78 -7.74,-7.45 -19.55,-13.07 -35.52,-16.84l-52.75 -12.29c-29.03,-6.87 -50.32,-17.61 -63.77,-32.13 -13.55,-14.52 -20.32,-32.62 -20.32,-54.48 0,-17.91 5.02,-33.69 15.09,-47.43 10.16,-13.74 23.91,-24.57 41.42,-32.42 17.61,-7.84 37.45,-11.71 59.72,-11.71 31.35,0 56.03,6.87 73.93,20.61 18,13.75 30.68,31.85 38.23,54.39z"/>
 </g>
</svg>
