<?xml version="1.0" encoding="UTF-8"?>
<!DOCTYPE svg PUBLIC "-//W3C//DTD SVG 1.1//EN" "http://www.w3.org/Graphics/SVG/1.1/DTD/svg11.dtd">
<!-- Creator: CorelDRAW -->
<svg xmlns="http://www.w3.org/2000/svg" xml:space="preserve" width="27.3774mm" height="5.734mm" version="1.1" style="shape-rendering:geometricPrecision; text-rendering:geometricPrecision; image-rendering:optimizeQuality; fill-rule:evenodd; clip-rule:evenodd"
viewBox="0 0 675.69 141.52"
 xmlns:xlink="http://www.w3.org/1999/xlink"
 xmlns:xodm="http://www.corel.com/coreldraw/odm/2003">
 <defs>
  <style type="text/css">
   <![CDATA[
    .fil0 {fill:#FEFEFE}
    .fil1 {fill:#01AEC0}
    .fil4 {fill:#0B5563}
    .fil5 {fill:#0F6978}
    .fil2 {fill:#6CE6E9}
    .fil6 {fill:#FCC249}
    .fil3 {fill:#FCFDFC}
    .fil7 {fill:#FEFEFE;fill-rule:nonzero}
    .fil8 {fill:#FEFEFE;fill-rule:nonzero}
    .fil9 {fill:#FFED00;fill-rule:nonzero}
   ]]>
  </style>
 </defs>
 <g id="Layer_x0020_1">
  <metadata id="CorelCorpID_0Corel-Layer"/>
  <g id="_2492244669840">
   <path class="fil0" d="M24.96 133.67c3,-3.57 3.59,-5.22 12.34,-9.45 21.63,-4.66 49.87,-11.49 58.8,-25.04 -6.13,1.15 -12.67,6.43 -18.81,7.58 -24.55,5.84 -47.74,1.41 -59.78,21.37 2.34,2.08 4.83,3.92 7.45,5.53z"/>
   <path class="fil1" d="M87.26 104.05c-0.03,-0 23.4,-10.55 16.54,-33.09 -0.21,-0.68 -0.65,-2.82 -0.93,-3.64 -0.13,-0.39 -0.65,-1.01 -0.32,-1.34 -0,-0.08 -0.07,-0.25 -0.16,-0.48 -9.74,-20.61 -32.48,-35.09 -48.76,-65.5 -0.22,2.52 -2.04,4.93 -2.78,7.36 -0.77,2.53 -0.57,6.48 -1.78,8.82 -6.44,12.52 -21.63,25.39 -29.94,37.33 -4.11,5.9 -8.91,12.95 -11.14,19.97 -1.1,3.45 -6.86,7.5 -7.95,11.21 -0.06,1.73 -0.05,3.51 0.06,5.36 1.73,14.25 11.85,8.94 3.82,19.33l-0 0c0.08,0.26 0.16,0.52 0.24,0.78 3.82,8.05 9.12,14.65 15.39,19.68 0.23,-0.36 0.41,-0.91 0.64,-1.61 1.54,-4.78 11.22,-8.91 15.9,-10.28 8.56,-2.51 17.31,-4.25 26.01,-6.2 2.73,-0.4 13.91,-3.21 16.76,-4.16 2.09,-0.69 6.25,-2.62 8.4,-3.56z"/>
   <g>
    <path class="fil2" d="M13.71 129.48c0.22,-1.82 1.55,-6.18 10.31,-9.96 5.44,-2.34 11.03,-3.61 16.89,-4.65l10.88 -1.88 13.31 -2.2c1.55,-0.2 9.68,-2.28 11.27,-2.88 0.21,-0.1 0.29,-0.11 0.27,-0.42 -0.87,-0.27 -23.91,0.32 -25.64,0.45 -4.17,0.33 -15.35,0.3 -17.99,1.02 -0.41,0.11 -6.2,0.68 -7.68,1.04 -5.68,1.38 -12.31,2.91 -16.28,7.67 -0.5,0.6 -1.39,1.93 -1.67,2.7 -0.07,0.19 -0.14,0.35 -0.2,0.48l6.53 8.64zm-9.76 -14.9c1.03,-0.86 2.79,-3.25 3.27,-3.64 6.3,-5.18 4.26,-2.21 2.84,-9.63 -4.91,-25.6 11.07,-40.46 25.95,-60.59 8.11,-10.97 16.76,-21.48 17.62,-35.64 -0.02,-0.04 -0.05,-0.09 -0.07,-0.13 -25.35,47.49 -66.48,56.17 -49.6,109.63z"/>
   </g>
   <g>
    <path class="fil3" d="M21.5 86.32l2.51 -0.01c1.2,-0.09 1.56,-1.73 1.57,-2.68 0.01,-1.7 0.03,-1.32 -1.99,-1.33 -4.1,-0.02 -4.14,-0.7 -4.03,1.74 0.05,1.16 0.53,2.27 1.93,2.28l0 0zm-5.5 -21.63l-0 11.81c0,1.33 -0.22,2.18 0.58,3.36 0.25,0.37 0.61,0.67 1.02,0.92 0.8,0.49 2.58,0.43 3.58,0.44l68.12 -0.03c0.97,0 2.09,-1.56 2.12,-2.84 0.03,-1.33 -0.03,-2.61 -0.04,-3.89 -0,-1.33 0.05,-2.67 0.05,-3.94 0,-1.72 -0.12,-4.23 -0.03,-5.83 0.11,-1.95 0.04,-2.82 -1.58,-4.29 -1.59,-1.44 -2.32,-1.1 -2.64,-1.31 -0.69,-0.12 -1.98,-0.08 -2.75,-0.06 -3.17,0.08 -3.95,1.91 -4.6,3.57 -0.26,0.67 -0.13,2.91 -0.14,3.99 -0.01,1.62 0.31,1.63 -1.13,1.63l-47.77 -0.01c-0.92,0 -1.84,0.02 -2.75,0.01 -0.73,-0 -0.41,-0.59 -0.39,-0.84l-0.03 -4.05c-0.31,-2.91 -1.54,-3.28 -4.57,-4.24l-2.05 0c-3.22,0.01 -4.98,2.62 -4.99,5.6l0 0zm12.15 -6.11c1.37,1.3 1.74,3.18 1.91,5.02 0.07,0.68 0.12,2.99 0.75,3.01 0.83,0.02 1.63,0.02 2.47,0.03l18.83 0.01c0.5,0.01 0.84,0.09 0.94,-0.34 0.08,-0.34 -0.04,-0.78 0.06,-1.18l0.08 -13.59c-0,-0.73 -0.05,-1.62 -0.39,-2.12 -1,-1.48 -2.04,-1.09 -3.95,-1.09 -4.46,-0.03 -16.17,-0.58 -19.89,-0.03 -1.89,0.33 -2.1,0.4 -3.26,1.73 -0.54,0.63 -0.61,1.12 -0.61,1.89l0.02 4.95c0.74,0.57 2.36,1.09 3.04,1.72l0 0zm26.32 6.71c0,1.36 -0.54,1.35 1.37,1.35 2.1,0 20.27,-0.03 20.75,0.03 1.12,0.14 0.51,-0.61 0.82,-2.65 0.77,-3.07 1.71,-5.43 4.8,-6.79 0.66,-0.29 0.39,-0.87 0.39,-1.85l-0.01 -3.66c-0.12,-2.44 -2.66,-3.53 -4.8,-3.53l-20.04 0.01c-0.97,0 -1.14,0.08 -1.86,0.32 -0.5,0.16 -1.52,0.89 -1.52,1.76l0.1 15zm31.11 21.07c1.02,-0.01 1.23,-0.03 1.8,-0.57 0.51,-0.48 0.53,-0.89 0.54,-1.8 0,-0.61 0.15,-1.66 -0.61,-1.77 -0.28,-0.04 -4.44,0.03 -4.64,0.08 -0.78,0.18 -0.53,2.55 -0.31,2.9 0.78,1.21 1.95,1.17 3.22,1.16z"/>
   </g>
   <path class="fil4" d="M103.84 78.38c0.01,0.74 -0.24,1.19 -0.33,1.71l-0.3 1.39c-0.08,0.22 -0.15,0.23 -0.23,0.46 -0.18,0.52 -0.87,2.87 -1.28,3.47l-0.55 1.2 -1.11 1.91c-1.17,1.91 -2.13,4.17 -3.67,5.9l-0.6 0.74c-0.09,0.12 -0.05,0.09 -0.11,0.21 -0.09,0.16 -0.25,0.21 -0.37,0.34l-1.19 1.54 -1.42 1.6c-0.09,0.1 -0.06,0.1 -0.16,0.21l-1.4 1.3c-0.48,0.39 -4.8,4.01 -4.84,4.14 0.78,-0 7.57,-4.15 8.34,-4.71l-1.4 1.44 -2.7 2.01c-0.16,0.12 -0.26,0.24 -0.43,0.36l-3.28 2.25 -1.51 0.91 -3.08 1.66c-1.12,0.56 -2.68,1.32 -3.86,1.74 -0.66,0.2 -1.42,0.66 -2.18,1.01l-1.17 0.41 -4.09 1.5c-0.2,0.07 -0.42,0.09 -0.61,0.17 -2.04,0.84 -2.71,0.89 -4.88,1.48 -0.41,0.11 -0.88,0.2 -1.32,0.27 -0.62,0.11 -1.44,0.44 -1.87,0.55 -0.22,0.06 -0.46,0.07 -0.68,0.11l-1.88 0.5c-0.88,0.28 -2.04,0.39 -3.27,0.75 -0.98,0.28 -3.6,0.74 -4.18,0.99 -0.47,0.2 -0.56,0.14 -0.97,0.24 -0.66,0.15 -0.43,0.01 -1.26,0.32 -0.95,0.3 -2.93,0.71 -3.76,1.04l-2.46 0.7c-0.84,0.49 -0.6,0.2 -1.46,0.54 -0.53,0.21 -1.61,0.61 -2.09,0.71l-2.84 1.16 -1.01 0.55c-0.19,0.1 -0.37,0.16 -0.55,0.25l-2.56 1.43 -1.84 1.33c-0.98,0.59 -1.43,1.01 -2.31,1.68 -0.58,0.45 -1.12,0.7 -1.83,1.33 -1.27,1.12 -1.34,1.43 -2.26,2.53 -0.49,0.59 -0.66,1.12 -0.78,1.51 8.72,5.55 18.87,8.4 29.31,8.3 20.41,0.2 39.69,-10.87 49.39,-31.34 5.67,-17.59 5.12,-30.36 0.92,-41.23 -0.12,-0.2 -0.24,-0.36 -0.35,-0.66l-0.46 -1.16c-0.12,-0.54 -0.27,-0.45 -0.39,-0.87 -0.03,-0.1 -0.04,-0.21 -0.11,-0.29 -0.11,0.11 -0.01,0.59 0.02,0.72 0.06,0.24 0.15,0.17 0.3,0.62 0.09,0.26 0.12,0.44 0.22,0.71 0.19,0.46 0.17,0.91 0.39,1.42 0.23,0.56 0.59,3.32 0.64,3.92 0.02,0.61 0.04,1.12 0.04,1.76 0,1 -0.34,2.86 -0.32,3.25z"/>
   <g>
    <path class="fil5" d="M107.03 89.6c-1,2.02 -3.76,8.47 -5.51,10.17 -7.43,8.31 -5.83,6.62 -15.69,12.25 -7.7,4.39 -29.08,8.91 -39.11,12.33 -3.28,1.11 -12.91,4.77 -13.82,7.06 11.03,7.79 62.11,0.53 72.44,-29.99l1.68 -11.82zm-34.72 -34.67c0.01,2.43 -7.33,4.68 -7.78,5.6 0.16,0.07 0.14,0.14 0.61,0.14 0,-0.27 1.26,-0.39 1.73,-0.74 1.65,-1.2 5.02,-1.58 6.94,-0.25 3.34,2.32 3.47,0.73 8.4,-3.41 0.97,-0.81 1.26,-1.49 -0.2,-1.19 -0.18,0.04 -4.41,1.56 -4.05,-0.53 0.09,-0.56 0.11,-2.29 0.41,-3.12 0.49,-1.39 0.88,-2.21 -0.9,-0.89 -0.79,0.58 -2.73,2.66 -3.68,2.65 -0.57,-1.33 0.05,-0.48 -2.87,-2.33l-2.67 -1.47c-0.02,1 2.44,5.33 3.11,5.46l0.93 0.06z"/>
   </g>
   <g>
    <path class="fil6" d="M70.64 43.76c3.87,2.77 2.7,7.05 3.53,7.12 1.86,-4.25 0.16,-7.13 6.86,-8.53 0.19,-0.04 1.78,0.14 1.11,-0.73 -2.77,-0.2 -4.87,-0.11 -6.74,-3.43 -1.24,-2.2 -1.11,-3.16 -1.22,-3.42 -0.79,-0.02 -0.37,4.9 -5.2,6.48 -6.13,2 -1.77,0.05 1.66,2.51l0 0zm22.26 57.38c-0.81,0.61 3.66,-1.44 4.03,-1.77 0.58,-0.53 2.72,-2.47 3.02,-3.04 0.15,-0.29 1.39,-1.7 1.68,-2.07 0.46,-0.61 1.74,-2.89 2.02,-3.67 0.35,-0.91 0.58,-1.26 0.91,-2.42 0.33,-1.06 0.57,-2.32 0.83,-3.42 0.15,-1.36 0.67,-2.86 0.06,-4.16 -0.33,0 -0.29,0.12 -0.34,0.6 -0.03,0.28 -0.07,0.5 -0.11,0.79 -0.56,3.59 -1.93,8.02 -3.61,10.56 -1.39,2.11 -6.17,6.69 -8.48,8.6l0 0zm12.6 -3.28c-0.1,0.25 -1.6,1.6 -1.92,1.91 -0.84,0.8 -1.81,1.95 -2.81,2.9 -1.68,1.61 -2.39,2.37 -4.01,3.67l-2.03 1.77c-0.9,0.72 -1.68,1.47 -2.65,2.09 -0.82,0.47 -1.19,0.87 -1.69,1.2l-4.68 2.98c-0.41,0.23 -1.52,0.73 -1.85,0.99l-3.14 1.65c-0.25,0.13 -0.45,0.15 -0.72,0.26l-1.24 0.66 -1.39 0.52 -1.29 0.61 -2.06 0.83c-0.21,0.14 -0.45,0.13 -0.7,0.23 -0.21,0.08 -0.44,0.22 -0.66,0.32l-3.58 1.22c-0.5,0.1 -0.57,0.05 -0.57,0.38 0.64,0.31 2.1,-0.24 2.77,-0.3 1.2,-0.11 3.33,-0.45 4.38,-0.49 1.26,-0.04 1.76,-0.04 3.03,-0.25l1.54 -0.14c0.9,-0.04 2.41,-0.17 3.24,-0.37l1.19 -0.09c0.55,-0.05 0.83,-0.22 1.31,-0.31 0.44,-0.08 0.94,-0.14 1.35,-0.27 0.43,-0.14 0.86,-0.2 1.34,-0.28 0.26,-0.04 0.19,-0.09 0.61,-0.19 0.57,-0.14 1.09,-0.42 2.01,-0.53 1.49,-0.62 1.07,-0.34 2.15,-0.7l3.04 -1.23 2.81 -1.47c0.21,-0.13 0.22,-0.21 0.41,-0.33 0.16,-0.1 0.29,-0.14 0.45,-0.25 0.17,-0.12 0.36,-0.25 0.55,-0.4 0.79,-1.37 1.55,-2.8 2.24,-4.27 1.52,-4.7 2.58,-9.05 3.25,-13.12l-0.7 0.81zm-25.91 -45.54c0.49,0.27 2.67,0.3 4.02,2.11 0.81,1.09 0.97,2.47 1.18,2.58 1.06,0.45 -0.68,-3.26 4.66,-4.41 0.39,-0.07 0.46,-0.07 0.46,-0.45 -1.09,-0.98 -2.79,0.61 -4.7,-3.66 -0.15,-0.33 -0.13,-0.62 -0.27,-0.94 -0.84,-0.01 0.01,2.06 -2.51,3.77 -0.79,0.53 -2.87,0.27 -2.84,1z"/>
   </g>
   <g>
    <path class="fil7" d="M666.96 94.86c-6.97,0 -12.52,-0.85 -16.66,-2.55 -4.14,-1.7 -7.14,-4.53 -9,-8.48 -1.86,-3.95 -2.79,-9.29 -2.79,-16.03l0.05 -22.64 -9.34 0 0 -15.33 9.37 0 0.03 -16.72 19.51 0 -0.03 16.72 17.57 0 0 15.33 -17.6 0 -0.05 23.22c0,2.86 0.76,5.05 2.26,6.56 1.51,1.51 3.7,2.27 6.56,2.27l8.83 0 0 17.65 -8.71 0z"/>
    <path class="fil7" d="M591.95 93.93l0 -47.38 -7.2 0 0 -15.33 7.2 0 0 -1.16c0,-7.51 2.17,-13.1 6.5,-16.78 4.33,-3.68 10.76,-5.52 19.28,-5.52l8.25 0 0 15.56 -8.71 0c-1.86,0 -3.29,0.5 -4.3,1.51 -1.01,1 -1.51,2.44 -1.51,4.3l0 2.09 15.44 0 0 15.33 -15.44 0 0 47.38 -19.51 0z"/>
    <path class="fil7" d="M543.29 96.25c-5.65,0 -10.68,-0.85 -15.09,-2.55 -4.41,-1.7 -8.15,-4.06 -11.21,-7.08 -3.06,-3.02 -5.38,-6.5 -6.97,-10.45 -1.59,-3.95 -2.38,-8.17 -2.38,-12.66l0 -2.79c0,-4.64 0.83,-8.98 2.5,-13 1.67,-4.03 4.05,-7.55 7.14,-10.57 3.1,-3.02 6.85,-5.38 11.26,-7.08 4.41,-1.7 9.33,-2.55 14.75,-2.55 5.5,0 10.43,0.85 14.81,2.55 4.38,1.7 8.11,4.06 11.21,7.08 3.1,3.02 5.48,6.54 7.14,10.57 1.67,4.03 2.5,8.36 2.5,13l0 2.79c0,4.49 -0.79,8.71 -2.38,12.66 -1.59,3.95 -3.91,7.43 -6.97,10.45 -3.06,3.02 -6.79,5.38 -11.21,7.08 -4.41,1.7 -9.45,2.55 -15.1,2.55zm0 -17.65c3.25,0 5.94,-0.7 8.07,-2.09 2.13,-1.39 3.74,-3.35 4.82,-5.86 1.08,-2.51 1.63,-5.36 1.63,-8.53 0,-3.33 -0.56,-6.25 -1.68,-8.77 -1.12,-2.52 -2.77,-4.51 -4.94,-5.98 -2.17,-1.47 -4.8,-2.21 -7.9,-2.21 -3.09,0 -5.73,0.74 -7.9,2.21 -2.17,1.47 -3.81,3.46 -4.94,5.98 -1.12,2.51 -1.68,5.44 -1.68,8.77 0,3.17 0.54,6.02 1.63,8.53 1.08,2.52 2.71,4.47 4.88,5.86 2.17,1.39 4.84,2.09 8.01,2.09z"/>
    <path class="fil7" d="M465.95 96.25c-7.9,0 -14.53,-1.24 -19.91,-3.72 -5.38,-2.48 -9.45,-5.86 -12.19,-10.16 -2.75,-4.29 -4.12,-9.23 -4.12,-14.81l20.9 0c0,2.01 0.56,3.85 1.69,5.52 1.12,1.67 2.81,2.96 5.05,3.89 2.25,0.93 5.11,1.39 8.59,1.39 3.02,0 5.59,-0.39 7.72,-1.16 2.13,-0.77 3.75,-1.86 4.88,-3.25 1.12,-1.39 1.68,-3.06 1.68,-4.99 0,-2.48 -1.04,-4.39 -3.13,-5.75 -2.09,-1.35 -5.61,-2.23 -10.57,-2.61l-5.46 -0.46c-8.75,-0.77 -15.72,-3.52 -20.9,-8.24 -5.19,-4.72 -7.78,-11 -7.78,-18.81 0,-5.57 1.3,-10.33 3.89,-14.28 2.59,-3.95 6.25,-6.97 10.97,-9.06 4.72,-2.09 10.3,-3.13 16.72,-3.13 6.97,0 12.87,1.16 17.71,3.48 4.84,2.32 8.54,5.59 11.09,9.81 2.55,4.22 3.83,9.11 3.83,14.69l-20.9 0c0,-1.86 -0.46,-3.56 -1.39,-5.11 -0.93,-1.55 -2.27,-2.77 -4.01,-3.66 -1.74,-0.89 -3.85,-1.34 -6.33,-1.34 -2.32,0 -4.28,0.37 -5.86,1.1 -1.59,0.74 -2.79,1.76 -3.6,3.08 -0.81,1.32 -1.22,2.79 -1.22,4.41 0,2.17 0.74,4.03 2.21,5.58 1.47,1.55 4.03,2.48 7.67,2.79l5.46 0.46c6.35,0.54 11.96,1.92 16.84,4.12 4.88,2.21 8.71,5.21 11.5,9 2.79,3.79 4.18,8.44 4.18,13.93 0,5.5 -1.41,10.3 -4.24,14.4 -2.83,4.1 -6.85,7.28 -12.08,9.52 -5.22,2.24 -11.52,3.37 -18.87,3.37z"/>
    <path class="fil7" d="M378.2 67.7c0.25,1.27 0.58,2.44 1,3.53 1.01,2.59 2.55,4.59 4.64,5.98 2.09,1.39 4.8,2.09 8.13,2.09 2.94,0 5.36,-0.5 7.26,-1.51 1.9,-1.01 3.23,-2.36 4.01,-4.06l19.28 0c-0.93,4.34 -2.77,8.21 -5.52,11.61 -2.75,3.41 -6.23,6.08 -10.45,8.01 -4.22,1.93 -9.08,2.9 -14.57,2.9 -5.42,0 -10.22,-0.93 -14.4,-2.79 -4.18,-1.86 -7.7,-4.37 -10.57,-7.55 -2.87,-3.17 -5.05,-6.73 -6.56,-10.68 -1.51,-3.95 -2.26,-8.01 -2.26,-12.19l0 -2.32c0,-4.33 0.76,-8.5 2.26,-12.48 1.51,-3.99 3.68,-7.53 6.5,-10.63 2.83,-3.09 6.29,-5.55 10.39,-7.37 4.1,-1.82 8.75,-2.73 13.93,-2.73 6.89,0 12.74,1.55 17.54,4.64 4.8,3.1 8.48,7.18 11.03,12.25 2.55,5.07 3.83,10.59 3.83,16.55l0 6.73 -45.48 0.01zm-0.05 -11.4l25.69 0.07c-0.18,-1.18 -0.5,-2.59 -1.12,-4.19 -0.97,-2.51 -2.4,-4.43 -4.3,-5.75 -1.9,-1.32 -4.28,-1.97 -7.14,-1.97 -2.79,0 -5.21,0.64 -7.26,1.92 -2.05,1.28 -3.62,3.21 -4.7,5.8 -0.51,1.22 -0.9,2.59 -1.17,4.12z"/>
    <path class="fil7" d="M329.63 52.13c0.54,-5.44 2.09,-11.07 5.39,-15.57 3.75,-5.1 9.15,-7.67 16.2,-7.67l2.55 0 0 18.12 -4.88 0c-4.72,0 -8.38,1.28 -10.97,3.83 -2.59,2.55 -3.89,6.23 -3.89,11.03l0 32.05 -21.14 0 0 -64.1 16.72 0 0.01 22.3z"/>
    <path class="fil7" d="M258.9 96.02c-7.28,0 -12.91,-2.38 -16.9,-7.14 -3.99,-4.76 -5.98,-12.06 -5.98,-21.89l0 -37.16 21.13 0 0 37.74c0,2.87 0.85,5.19 2.55,6.97 1.7,1.78 3.99,2.67 6.85,2.67 2.87,0 5.19,-0.89 6.97,-2.67 1.78,-1.78 2.67,-4.18 2.67,-7.2l0 -37.51 21.14 0 0 64.1 -16.72 0 0 -14.88c-1.88,5.99 -2.93,10.12 -8.71,13.83 -3.25,2.09 -7.28,3.13 -12.08,3.13l-0.93 0z"/>
    <path class="fil7" d="M159.85 93.93l0 -85.47 19.28 0 2.32 0 11.03 0c7.28,0 13.57,1.22 18.87,3.66 5.3,2.44 9.39,5.94 12.25,10.51 2.86,4.57 4.3,10.03 4.3,16.37l0 1.86c0,6.27 -1.43,11.69 -4.3,16.26 -2.87,4.57 -6.95,8.09 -12.25,10.57 -5.3,2.48 -11.59,3.72 -18.87,3.72l-11.03 0 0 22.53 -21.6 0zm21.6 -66.89l0 25.78 11.61 0c2.63,0 4.92,-0.52 6.85,-1.57 1.94,-1.05 3.45,-2.54 4.53,-4.47 1.09,-1.93 1.63,-4.22 1.63,-6.85 0,-2.71 -0.54,-5.03 -1.63,-6.97 -1.08,-1.93 -2.59,-3.41 -4.53,-4.41 -1.93,-1 -4.22,-1.51 -6.85,-1.51l-11.61 0z"/>
    <path class="fil8" d="M219.96 127.35l0 -18.93 3.11 0 0 18.93 -3.11 0zm2.59 0l0 -2.77 8.43 0 0 2.77 -8.43 0z"/>
    <polygon id="_1" class="fil8" points="238.34,127.35 238.34,108.42 241.45,108.42 241.45,127.35 "/>
    <polygon id="_2" class="fil8" points="250.69,127.35 250.69,108.42 254.89,108.42 260.07,120.38 260.51,120.38 265.65,108.42 269.9,108.42 269.9,127.35 266.81,127.35 266.81,111.2 267.12,111.25 261.89,123.46 258.46,123.46 253.17,111.25 253.54,111.2 253.54,127.35 "/>
    <path id="_3" class="fil8" d="M281.67 121.15l0 -2.72 3.94 0c0.83,0 1.52,-0.16 2.06,-0.48 0.55,-0.32 0.97,-0.76 1.26,-1.32 0.29,-0.56 0.44,-1.2 0.44,-1.91 0,-0.73 -0.15,-1.37 -0.44,-1.93 -0.29,-0.56 -0.71,-1 -1.26,-1.31 -0.54,-0.31 -1.23,-0.47 -2.06,-0.47l-3.94 0 0 -2.72 3.58 0c1.57,0 2.9,0.25 3.98,0.77 1.08,0.51 1.9,1.23 2.46,2.15 0.56,0.93 0.84,2.03 0.84,3.31l0 0.41c0,1.26 -0.28,2.36 -0.84,3.29 -0.56,0.93 -1.38,1.66 -2.46,2.16 -1.08,0.51 -2.41,0.77 -3.98,0.77l-3.58 0zm-2.59 6.2l0 -19.06 3.11 0 0 19.06 -3.11 0z"/>
    <polygon id="_4" class="fil8" points="300.05,127.35 300.05,108.42 303.16,108.42 303.16,127.35 "/>
    <path id="_5" class="fil8" d="M312.4 127.35l0 -18.93 3.09 0 0 18.93 -3.09 0zm2.57 0l0 -2.7 8.87 0 0 2.7 -8.87 0zm0 -8.27l0 -2.7 8.14 0 0 2.7 -8.14 0zm0 -7.96l0 -2.7 8.63 0 0 2.7 -8.63 0z"/>
    <polygon id="_6" class="fil8" points="330.86,127.35 330.86,124.22 341.93,111.07 341.93,111.64 341.2,110.65 341.7,110.99 331.12,110.99 331.12,108.42 345.04,108.42 345.04,111.56 333.95,124.71 333.89,124.03 334.75,125.2 334.1,124.76 345.25,124.76 345.25,127.35 "/>
    <path id="_7" class="fil8" d="M351.06 127.35l6.64 -18.93 5.16 0 6.84 18.93 -3.21 0 -5.99 -16.85 1.27 0.6 -3.14 0 1.35 -0.6 -5.81 16.85 -3.11 0zm4.3 -5.34l0.98 -2.7 7.93 0 1.01 2.7 -9.93 0z"/>
    <path id="_8" class="fil8" d="M391.04 127.46l0 -2.88 4.33 0c1.05,0 2,-0.17 2.83,-0.51 0.83,-0.34 1.54,-0.81 2.13,-1.41 0.59,-0.6 1.03,-1.32 1.34,-2.14 0.3,-0.82 0.45,-1.71 0.45,-2.66 0,-1.02 -0.15,-1.94 -0.45,-2.75 -0.3,-0.81 -0.75,-1.51 -1.34,-2.1 -0.59,-0.59 -1.3,-1.04 -2.13,-1.36 -0.83,-0.32 -1.77,-0.48 -2.83,-0.48l-4.33 0 0 -2.88 4.07 0c1.71,0 3.2,0.26 4.47,0.78 1.27,0.52 2.33,1.22 3.18,2.1 0.85,0.88 1.48,1.88 1.89,2.98 0.41,1.11 0.62,2.25 0.62,3.42l0 0.57c0,1.11 -0.21,2.22 -0.62,3.33 -0.41,1.12 -1.05,2.12 -1.89,3.01 -0.85,0.89 -1.91,1.61 -3.18,2.15 -1.27,0.55 -2.76,0.82 -4.47,0.82l-4.07 0zm-2.59 0l0 -19.16 3.11 0 0 19.16 -3.11 0z"/>
    <path id="_9" class="fil8" d="M412.98 127.35l0 -18.93 3.09 0 0 18.93 -3.09 0zm2.57 0l0 -2.7 8.87 0 0 2.7 -8.87 0zm0 -8.27l0 -2.7 8.14 0 0 2.7 -8.14 0zm0 -7.96l0 -2.7 8.63 0 0 2.7 -8.63 0z"/>
    <path id="_10" class="fil8" d="M447.8 127.35l0 -16.7 3.11 0 0 16.7 -3.11 0zm-5.6 -16.18l0 -2.75 14.34 0 0 2.75 -14.34 0z"/>
    <path id="_11" class="fil8" d="M460.33 127.35l6.64 -18.93 5.16 0 6.84 18.93 -3.21 0 -5.99 -16.85 1.27 0.6 -3.14 0 1.35 -0.6 -5.81 16.85 -3.11 0zm4.3 -5.34l0.98 -2.7 7.93 0 1.01 2.7 -9.93 0z"/>
    <path id="_12" class="fil8" d="M488.8 121.15l0 -2.72 3.94 0c0.83,0 1.52,-0.16 2.06,-0.48 0.55,-0.32 0.97,-0.76 1.26,-1.32 0.29,-0.56 0.44,-1.2 0.44,-1.91 0,-0.73 -0.15,-1.37 -0.44,-1.93 -0.29,-0.56 -0.71,-1 -1.26,-1.31 -0.54,-0.31 -1.23,-0.47 -2.06,-0.47l-3.94 0 0 -2.72 3.58 0c1.57,0 2.9,0.25 3.98,0.77 1.08,0.51 1.9,1.23 2.46,2.15 0.56,0.93 0.84,2.03 0.84,3.31l0 0.41c0,1.26 -0.28,2.36 -0.84,3.29 -0.56,0.93 -1.38,1.66 -2.46,2.16 -1.08,0.51 -2.41,0.77 -3.98,0.77l-3.58 0zm-2.59 6.2l0 -19.06 3.11 0 0 19.06 -3.11 0z"/>
    <polygon id="_13" class="fil8" points="507.18,127.35 507.18,108.42 510.29,108.42 510.29,127.35 "/>
    <path id="_14" class="fil8" d="M527.9 127.82c-1.73,0 -3.2,-0.3 -4.42,-0.89 -1.22,-0.6 -2.2,-1.38 -2.96,-2.36 -0.75,-0.98 -1.31,-2.03 -1.66,-3.16 -0.36,-1.13 -0.53,-2.23 -0.53,-3.28l0 -0.57c0,-1.16 0.18,-2.31 0.55,-3.45 0.36,-1.14 0.92,-2.18 1.67,-3.11 0.75,-0.94 1.73,-1.69 2.93,-2.26 1.2,-0.57 2.62,-0.86 4.26,-0.86 1.71,0 3.19,0.3 4.44,0.91 1.24,0.6 2.23,1.45 2.97,2.53 0.74,1.08 1.17,2.35 1.31,3.83l-3.14 0c-0.14,-0.97 -0.46,-1.78 -0.97,-2.43 -0.51,-0.65 -1.16,-1.14 -1.94,-1.46 -0.79,-0.33 -1.67,-0.49 -2.66,-0.49 -1.02,0 -1.92,0.18 -2.71,0.55 -0.79,0.36 -1.44,0.86 -1.96,1.5 -0.52,0.64 -0.91,1.39 -1.18,2.24 -0.27,0.86 -0.4,1.79 -0.4,2.81 0,0.97 0.13,1.88 0.4,2.73 0.27,0.86 0.67,1.61 1.2,2.27 0.54,0.66 1.21,1.17 2.01,1.53 0.8,0.36 1.73,0.55 2.79,0.55 1.52,0 2.8,-0.38 3.84,-1.13 1.04,-0.75 1.67,-1.83 1.89,-3.23l3.16 0c-0.17,1.33 -0.62,2.54 -1.35,3.64 -0.73,1.1 -1.72,1.97 -2.98,2.62 -1.26,0.65 -2.78,0.97 -4.56,0.97z"/>
    <path id="_15" class="fil8" d="M544.28 127.35l0 -18.93 3.09 0 0 18.93 -3.09 0zm2.57 0l0 -2.7 8.87 0 0 2.7 -8.87 0zm0 -8.27l0 -2.7 8.14 0 0 2.7 -8.14 0zm0 -7.96l0 -2.7 8.63 0 0 2.7 -8.63 0z"/>
    <path id="_16" class="fil8" d="M563.89 127.35l0 -19.06 3.11 0 0 19.06 -3.11 0zm11.61 0l-6.01 -8.32 3.53 0 6.2 8.32 -3.71 0zm-9.51 -6.59l0 -2.62 4.93 0c0.74,0 1.38,-0.15 1.92,-0.45 0.54,-0.3 0.95,-0.72 1.23,-1.26 0.29,-0.54 0.43,-1.16 0.43,-1.87 0,-0.69 -0.14,-1.31 -0.43,-1.84 -0.28,-0.54 -0.7,-0.96 -1.23,-1.27 -0.54,-0.31 -1.17,-0.47 -1.92,-0.47l-4.93 0 0 -2.7 4.51 0c1.45,0 2.71,0.22 3.78,0.66 1.07,0.44 1.9,1.1 2.49,1.98 0.59,0.88 0.88,2.01 0.88,3.4l0 0.41c0,1.38 -0.3,2.51 -0.89,3.4 -0.6,0.88 -1.43,1.54 -2.49,1.97 -1.06,0.43 -2.32,0.65 -3.77,0.65l-4.51 0z"/>
    <polygon id="_17" class="fil8" points="586.45,127.35 586.45,108.42 589.56,108.42 589.56,127.35 "/>
    <path id="_18" class="fil8" d="M596.84 127.35l6.64 -18.93 5.16 0 6.84 18.93 -3.21 0 -5.99 -16.85 1.27 0.6 -3.14 0 1.35 -0.6 -5.81 16.85 -3.11 0zm4.3 -5.34l0.98 -2.7 7.93 0 1.01 2.7 -9.93 0z"/>
    <polygon class="fil9" points="159.84,114.76 207.06,114.76 207.06,120.93 159.84,120.93 "/>
    <polygon class="fil9" points="628.48,114.76 675.69,114.76 675.69,120.93 628.48,120.93 "/>
   </g>
  </g>
 </g>
</svg>
