<?xml version="1.0" encoding="UTF-8"?>
<!DOCTYPE svg PUBLIC "-//W3C//DTD SVG 1.1//EN" "http://www.w3.org/Graphics/SVG/1.1/DTD/svg11.dtd">
<!-- Creator: CorelDRAW -->
<svg xmlns="http://www.w3.org/2000/svg" xml:space="preserve" width="29.3109mm" height="26.2719mm" version="1.1" style="shape-rendering:geometricPrecision; text-rendering:geometricPrecision; image-rendering:optimizeQuality; fill-rule:evenodd; clip-rule:evenodd"
viewBox="0 0 7211.33 6463.65"
 xmlns:xlink="http://www.w3.org/1999/xlink"
 xmlns:xodm="http://www.corel.com/coreldraw/odm/2003">
 <defs>
  <style type="text/css">
   <![CDATA[
    .fil1 {fill:#FCC249;fill-rule:nonzero}
    .fil0 {fill:#FEFEFE;fill-rule:nonzero}
   ]]>
  </style>
 </defs>
 <g id="Layer_x0020_1">
  <metadata id="CorelCorpID_0Corel-Layer"/>
  <path class="fil0" d="M282.44 949.4l0 -272.21 204.18 0c38.55,0 71.99,-7.65 100.38,-22.95 28.37,-15.33 50.49,-37.15 66.35,-65.52 15.87,-28.37 23.82,-61.83 23.82,-100.38 0,-39.73 -7.95,-73.76 -23.82,-102.1 -15.87,-28.37 -37.96,-49.94 -66.35,-64.68 -28.37,-14.79 -61.83,-22.09 -100.38,-22.09l-204.18 0 0 -272.21 195.64 0c106.6,0 198.82,17.86 276.51,53.61 77.7,35.75 137.53,87.09 179.5,153.99 41.95,66.94 62.91,146.88 62.91,239.9l0 27.21c0,91.89 -20.96,171.29 -62.91,238.23 -41.97,66.94 -101.83,118.54 -179.5,154.83 -77.7,36.29 -169.83,54.45 -276.51,54.45l-195.64 0 0 -0.07zm-282.44 330.05l0 -1252.21 316.47 0 0 1252.21 -316.47 0z"/>
  <path id="_1" class="fil0" d="M1246.46 1279.45l0 -1252.21 316.47 0 0 1252.21 -316.47 0zm748.67 0l-348.82 -527.44 343.68 0 369.19 527.44 -364.1 0 0.05 0zm-512.16 -381.12l0 -243.3 297.74 0c37.47,0 69.75,-7.36 96.98,-22.09 27.21,-14.74 48.49,-35.7 63.82,-62.96 15.33,-27.21 22.95,-58.97 22.95,-95.26 0,-37.47 -7.65,-69.77 -22.95,-96.98 -15.33,-27.26 -36.56,-48.22 -63.82,-62.96 -27.26,-14.74 -59.51,-22.09 -96.98,-22.09l-297.74 0 0 -265.44 279.05 0c107.74,0 200.81,16.19 279.05,48.49 78.29,32.33 138.34,79.96 180.34,142.92 41.97,62.96 62.96,140.93 62.96,233.92l0 27.21c0,93.02 -21.26,170.42 -63.82,232.25 -42.54,61.78 -102.67,108.33 -180.36,139.52 -77.7,31.2 -170.42,46.77 -278.18,46.77l-279.05 0 0.02 0z"/>
  <path id="_2" class="fil0" d="M3197.32 1313.5c-113.44,0 -212.1,-19.56 -296.02,-58.7 -83.92,-39.09 -153.69,-90.76 -209.25,-154.83 -55.58,-64.09 -96.98,-133.54 -124.2,-208.39 -27.26,-74.89 -40.87,-147.47 -40.87,-217.78l0 -37.47c0,-78.29 14.2,-155.12 42.54,-230.53 28.34,-75.43 70.88,-143.75 127.59,-205.02 56.71,-61.29 126.78,-110 210.11,-146.34 83.38,-36.29 180.07,-54.45 290.09,-54.45 108.87,0 205.02,18.16 288.4,54.45 83.35,36.34 153.4,85.05 210.11,146.34 56.71,61.24 99.57,129.58 128.48,205.02 28.93,75.43 43.37,152.27 43.37,230.53l0 37.47c0,70.32 -13.93,142.92 -41.68,217.78 -27.8,74.84 -69.45,144.32 -125.06,208.39 -55.58,64.09 -125.38,115.71 -209.25,154.83 -83.92,39.14 -182.04,58.7 -294.35,58.7l-0.02 0zm0 -296.05c54.45,0 103.23,-9.08 146.29,-27.21 43.1,-18.16 79.98,-43.67 110.59,-76.56 30.63,-32.89 53.88,-71.18 69.77,-114.85 15.87,-43.67 23.82,-91.03 23.82,-142.08 0,-54.45 -8.22,-103.77 -24.68,-148.01 -16.46,-44.24 -40,-82.25 -70.59,-114.03 -30.63,-31.74 -67.49,-56.14 -110.59,-73.12 -43.1,-17.03 -91.3,-25.54 -144.62,-25.54 -54.45,0 -103.23,8.49 -146.29,25.54 -43.1,17 -79.98,41.41 -110.59,73.12 -30.63,31.76 -53.88,69.77 -69.77,114.03 -15.87,44.24 -23.82,93.56 -23.82,148.01 0,51.08 7.95,98.44 23.82,142.08 15.89,43.67 39.14,81.95 69.77,114.85 30.61,32.89 67.49,58.41 110.59,76.56 43.1,18.13 91.89,27.21 146.29,27.21z"/>
  <polygon id="_3" class="fil0" points="4154.52,1279.45 4154.52,37.45 4593.51,37.45 4848.71,692.5 4882.74,692.5 5136.25,37.45 5583.72,37.45 5583.72,1279.45 5270.65,1279.45 5270.65,219.51 5320.01,222.88 5000.17,1029.36 4712.59,1029.36 4391.03,222.88 4443.77,219.51 4443.77,1279.45 "/>
  <path id="_4" class="fil0" d="M6540.97 1313.5c-113.44,0 -212.1,-19.56 -296.02,-58.7 -83.92,-39.09 -153.69,-90.76 -209.25,-154.83 -55.58,-64.09 -96.98,-133.54 -124.2,-208.39 -27.26,-74.89 -40.87,-147.47 -40.87,-217.78l0 -37.47c0,-78.29 14.2,-155.12 42.54,-230.53 28.34,-75.43 70.88,-143.75 127.59,-205.02 56.71,-61.29 126.78,-110 210.11,-146.34 83.38,-36.29 180.07,-54.45 290.09,-54.45 108.87,0 205.02,18.16 288.4,54.45 83.35,36.34 153.4,85.05 210.11,146.34 56.71,61.24 99.57,129.58 128.48,205.02 28.93,75.43 43.37,152.27 43.37,230.53l0 37.47c0,70.32 -13.93,142.92 -41.68,217.78 -27.8,74.84 -69.45,144.32 -125.06,208.39 -55.58,64.09 -125.38,115.71 -209.25,154.83 -83.92,39.14 -182.04,58.7 -294.35,58.7l-0.02 0zm0 -296.05c54.45,0 103.23,-9.08 146.29,-27.21 43.1,-18.16 79.98,-43.67 110.59,-76.56 30.63,-32.89 53.88,-71.18 69.77,-114.85 15.87,-43.67 23.82,-91.03 23.82,-142.08 0,-54.45 -8.22,-103.77 -24.68,-148.01 -16.46,-44.24 -40,-82.25 -70.59,-114.03 -30.63,-31.74 -67.49,-56.14 -110.59,-73.12 -43.1,-17.03 -91.3,-25.54 -144.62,-25.54 -54.45,0 -103.23,8.49 -146.29,25.54 -43.1,17 -79.98,41.41 -110.59,73.12 -30.63,31.76 -53.88,69.77 -69.77,114.03 -15.87,44.24 -23.82,93.56 -23.82,148.01 0,51.08 7.95,98.44 23.82,142.08 15.89,43.67 39.14,81.95 69.77,114.85 30.61,32.89 67.49,58.41 110.59,76.56 43.1,18.13 91.89,27.21 146.29,27.21z"/>
  <path class="fil1" d="M1893.34 4077.98c-144.66,0 -270.8,-26.5 -378.47,-79.49 -107.66,-52.97 -190.5,-125.33 -248.54,-217.02 -58.04,-91.69 -87.05,-196.38 -87.05,-314.13l454.17 0c0,65.62 22.73,119 68.15,160.21 45.42,41.21 109.34,61.83 191.75,61.83 55.5,0 102.59,-10.48 141.32,-31.54 38.68,-21.06 68.15,-49.62 88.3,-85.79 20.2,-36.17 30.29,-76.96 30.29,-122.37 0,-68.99 -22.29,-126.14 -66.85,-171.61 -44.61,-45.42 -108.92,-68.15 -193.03,-68.15 -48.81,0 -92.06,7.55 -129.98,22.73 -37.86,15.13 -70.22,34.47 -97.13,58.01l-209.44 -348.18 509.72 -312.87 -22.73 -40.37 -686.32 0 0 -403.73 1281.86 0 0 401.2 -663.64 403.73 -211.95 -78.24c35.33,-10.09 72.75,-17.66 112.26,-22.73 39.54,-5.02 80.35,-7.55 122.37,-7.55 144.69,0 269.99,22.73 375.98,68.15 105.96,45.42 187.97,110.59 246,195.54 58.04,84.95 87.09,186.34 87.09,304.07l0 30.26c0,116.08 -29.03,219.11 -87.09,309.14 -58.01,90.02 -140.46,160.66 -247.26,211.95 -106.8,51.35 -233.43,76.96 -379.77,76.96l-0.02 0z"/>
  <polygon id="_1_6" class="fil1" points="2871.35,4027.54 3282.64,3275.58 3272.55,3341.22 2883.98,2634.67 3378.54,2634.67 3603.12,3091.38 3643.47,3091.38 3855.45,2634.67 4319.73,2634.67 3948.79,3353.82 3958.9,3298.31 4395.43,4027.54 3900.86,4027.54 3628.34,3540.53 3587.96,3540.53 3335.64,4027.54 "/>
  <path id="_2_7" class="fil1" d="M4684.61 4027.54l0 -403.73c0,-80.72 13.88,-151.8 41.63,-213.18 27.8,-61.41 71.5,-115.66 131.21,-162.75 59.71,-47.09 137.48,-90.83 233.38,-131.21l280.08 -118.59c72.36,-30.29 124.91,-66.45 157.73,-108.52 32.8,-42.07 49.21,-95.04 49.21,-158.96 0,-58.87 -19.76,-108.92 -59.29,-150.13 -39.54,-41.21 -97.13,-61.83 -172.84,-61.83 -77.38,0 -135.41,21.43 -174.14,64.31 -38.68,42.91 -58.04,100.53 -58.04,172.84l-454.17 0c0,-121.12 26.03,-228.78 78.19,-322.96 52.16,-94.23 129.12,-168.21 230.9,-222.04 101.78,-53.83 227.53,-80.72 377.24,-80.72 148.06,0 272.94,25.66 374.7,76.96 101.78,51.3 179.16,121.12 232.13,209.42 52.97,88.32 79.49,187.97 79.49,299.02l0 30.29c0,142.99 -38.68,260.72 -116.05,353.25 -77.43,92.51 -201.84,175.76 -373.45,249.79l-280.08 118.61c-40.35,16.8 -70.22,35.33 -89.53,55.5 -19.36,20.2 -29.03,47.09 -29.03,80.72l0 90.83 -108.5 -70.68 991.62 0 0 403.73 -1342.38 0 0 0.02z"/>
  <path class="fil0" d="M1689.53 5324.31l0 -533.12 135.81 0 0 533.12 -135.81 0zm-338.88 0l0 -533.12 135.81 0 0 533.12 -135.81 0zm112.48 -209.59l0 -118.32 249.77 0 0 118.32 -249.77 0z"/>
  <path id="_1_8" class="fil0" d="M1926.63 5324.31l170.89 -533.12 217.59 0 176.75 533.12 -140.21 0 -137.28 -438.15 38.7 14.59 -96.39 0 39.44 -14.59 -133.64 438.15 -135.86 0 0.02 0zm139.5 -123.41l40.89 -111.03 202.31 0 40.89 111.03 -284.09 0z"/>
  <path id="_2_9" class="fil0" d="M2826.82 5338.95c-50.14,0 -93.24,-8.41 -129.26,-25.19 -36.02,-16.8 -65.49,-38.87 -88.37,-66.11 -22.88,-27.26 -39.68,-56.96 -50.41,-89.06 -10.73,-32.13 -16.07,-63.55 -16.07,-94.23l0 -16.07c0,-33.09 5.61,-65.84 16.8,-98.19 11.19,-32.4 28.1,-61.7 50.76,-88.03 22.66,-26.33 50.98,-47.34 85.05,-63.18 34.08,-15.82 73.98,-23.69 119.74,-23.69 49.21,0 92.63,9 130.35,27.01 37.74,18.01 68.03,42.96 90.91,74.89 22.88,31.89 36.29,68.77 40.2,110.64l-135.81 0c-2.93,-16.07 -9.99,-30.56 -21.16,-43.47 -11.19,-12.89 -25.69,-23.13 -43.47,-30.63 -17.79,-7.55 -38.13,-11.29 -61.02,-11.29 -21.9,0 -41.23,3.79 -58.04,11.29 -16.75,7.53 -30.9,18.26 -42.34,32.13 -11.42,13.88 -20.13,30.34 -25.93,49.3 -5.86,18.99 -8.78,39.64 -8.78,62.05 0,22.36 3.15,43.2 9.47,62.44 6.35,19.21 15.6,36.02 27.75,50.41 12.15,14.39 27.53,25.46 46.03,33.21 18.53,7.8 39.64,11.69 63.55,11.69 30.16,0 56.24,-6.32 78.11,-18.99 21.9,-12.67 37.27,-29.47 46.01,-50.41l-10.21 80.35 0 -116.13 124.15 0 0 109.53c-22.36,38.43 -54.18,68.03 -95.31,88.72 -41.14,20.69 -88.72,31.02 -142.75,31.02l0.05 -0.02zm-14.61 -203.02l0 -94.97 296.49 0 0 94.97 -296.49 0z"/>
  <path id="_3_10" class="fil0" d="M3163.96 5324.31l170.89 -533.12 217.59 0 176.75 533.12 -140.21 0 -137.28 -438.15 38.7 14.59 -96.39 0 39.44 -14.59 -133.64 438.15 -135.86 0 0.02 0zm139.52 -123.41l40.89 -111.03 202.31 0 40.89 111.03 -284.09 0z"/>
  <path id="_4_11" class="fil0" d="M4228.47 5338.95c-48.17,0 -89.58,-8.41 -124.15,-25.19 -34.57,-16.8 -63.08,-38.97 -85.45,-66.45 -22.41,-27.53 -38.97,-57.35 -49.67,-89.46 -10.73,-32.13 -16.07,-63.3 -16.07,-93.49l0 -16.07c0,-33.56 5.49,-66.58 16.46,-98.93 10.95,-32.4 27.75,-61.7 50.41,-88.03 22.66,-26.28 50.98,-47.21 85.05,-62.81 34.1,-15.6 73.98,-23.4 119.74,-23.4 48.69,0 91.92,9.13 129.61,27.36 37.74,18.26 68.05,43.82 90.96,76.69 22.88,32.87 36.26,70.95 40.2,114.31l-135.86 0c-3.4,-18.53 -10.73,-34.57 -21.9,-48.17 -11.19,-13.65 -25.56,-24.26 -43.08,-31.76 -17.54,-7.55 -37.49,-11.29 -59.91,-11.29 -20.94,0 -39.81,3.62 -56.61,10.95 -16.8,7.28 -30.9,17.66 -42.37,31.02 -11.42,13.41 -20.2,29.6 -26.28,48.57 -6.13,18.99 -9.13,40.42 -9.13,64.29 0,23.86 3.05,45.27 9.13,64.29 6.08,18.99 15.08,35.33 27.01,48.91 11.93,13.65 26.42,23.96 43.47,31.02 17.03,7.06 36.54,10.6 58.43,10.6 34.08,0 62.91,-8.29 86.53,-24.82 23.62,-16.53 37.86,-38.7 42.74,-66.45l135.81 0c-4.35,39.91 -17.79,76.44 -40.15,109.53 -22.41,33.09 -52.58,59.51 -90.56,79.22 -37.96,19.73 -82.76,29.6 -134.38,29.6l0 -0.02z"/>
  <path id="_5" class="fil0" d="M4606.52 5324.31l0 -533.12 135.81 0 0 533.12 -135.81 0zm121.24 0l0 -118.32 216.19 0 0 118.32 -216.19 0z"/>
  <polygon id="_6" class="fil0" points="5059.76,5324.31 5059.76,4791.19 5195.61,4791.19 5195.61,5324.31 "/>
  <path id="_7" class="fil0" d="M5595.53 5338.95c-48.17,0 -89.58,-8.41 -124.15,-25.19 -34.57,-16.8 -63.08,-38.97 -85.45,-66.45 -22.41,-27.53 -38.97,-57.35 -49.67,-89.46 -10.73,-32.13 -16.07,-63.3 -16.07,-93.49l0 -16.07c0,-33.56 5.49,-66.58 16.46,-98.93 10.95,-32.4 27.75,-61.7 50.41,-88.03 22.66,-26.28 50.98,-47.21 85.05,-62.81 34.1,-15.6 73.98,-23.4 119.74,-23.4 48.69,0 91.92,9.13 129.61,27.36 37.74,18.26 68.05,43.82 90.96,76.69 22.88,32.87 36.26,70.95 40.2,114.31l-135.86 0c-3.4,-18.53 -10.73,-34.57 -21.9,-48.17 -11.19,-13.65 -25.56,-24.26 -43.08,-31.76 -17.54,-7.55 -37.49,-11.29 -59.91,-11.29 -20.94,0 -39.81,3.62 -56.61,10.95 -16.8,7.28 -30.9,17.66 -42.37,31.02 -11.42,13.41 -20.2,29.6 -26.28,48.57 -6.13,18.99 -9.13,40.42 -9.13,64.29 0,23.86 3.05,45.27 9.13,64.29 6.08,18.99 15.08,35.33 27.01,48.91 11.93,13.65 26.42,23.96 43.47,31.02 17.03,7.06 36.54,10.6 58.43,10.6 34.08,0 62.91,-8.29 86.53,-24.82 23.62,-16.53 37.86,-38.7 42.74,-66.45l135.81 0c-4.35,39.91 -17.79,76.44 -40.15,109.53 -22.41,33.09 -52.58,59.51 -90.56,79.22 -37.96,19.73 -82.76,29.6 -134.38,29.6l0 -0.02z"/>
  <path id="_8" class="fil0" d="M211.41 6248.89l-151.18 -333.02 138.78 0 101.51 237.37 -18.99 -6.59 52.58 0 -20.42 6.59 89.83 -237.37 131.45 0 -138.05 333.02 -185.51 0zm26.3 200.1l0 -217.64 132.88 0 0 217.64 -132.88 0z"/>
  <path id="_9" class="fil0" d="M1031.33 6463.62c-48.17,0 -89.58,-8.41 -124.15,-25.19 -34.57,-16.8 -63.08,-38.97 -85.45,-66.45 -22.41,-27.53 -38.97,-57.35 -49.67,-89.46 -10.73,-32.13 -16.07,-63.3 -16.07,-93.49l0 -16.07c0,-33.56 5.49,-66.58 16.46,-98.93 10.95,-32.4 27.75,-61.7 50.41,-88.03 22.66,-26.28 50.98,-47.21 85.05,-62.81 34.1,-15.6 73.98,-23.4 119.74,-23.4 48.69,0 91.92,9.13 129.61,27.36 37.74,18.26 68.05,43.82 90.96,76.69 22.88,32.87 36.26,70.95 40.2,114.31l-135.86 0c-3.4,-18.53 -10.73,-34.57 -21.9,-48.17 -11.19,-13.65 -25.56,-24.26 -43.08,-31.76 -17.54,-7.55 -37.49,-11.29 -59.91,-11.29 -20.94,0 -39.81,3.62 -56.61,10.95 -16.8,7.28 -30.9,17.66 -42.37,31.02 -11.42,13.41 -20.2,29.6 -26.28,48.57 -6.13,18.99 -9.13,40.42 -9.13,64.29 0,23.86 3.05,45.27 9.13,64.29 6.08,18.99 15.08,35.33 27.01,48.91 11.93,13.65 26.42,23.96 43.47,31.02 17.03,7.06 36.54,10.6 58.43,10.6 34.08,0 62.91,-8.29 86.53,-24.82 23.62,-16.53 37.86,-38.7 42.74,-66.45l135.81 0c-4.35,39.91 -17.79,76.44 -40.15,109.53 -22.41,33.09 -52.58,59.51 -90.56,79.22 -37.96,19.73 -82.76,29.6 -134.38,29.6l0 -0.02z"/>
  <path id="_10" class="fil0" d="M1670.78 6463.62c-48.64,0 -91.03,-8.41 -127.07,-25.19 -36.02,-16.8 -65.96,-38.97 -89.83,-66.45 -23.86,-27.53 -41.63,-57.35 -53.34,-89.46 -11.69,-32.13 -17.49,-63.3 -17.49,-93.49l0 -16.07c0,-33.56 6.08,-66.58 18.26,-98.93 12.15,-32.4 30.43,-61.7 54.77,-88.03 24.36,-26.28 54.42,-47.21 90.19,-62.81 35.8,-15.6 77.3,-23.4 124.52,-23.4 46.75,0 88.03,7.75 123.8,23.4 35.8,15.6 65.84,36.54 90.19,62.81 24.33,26.33 42.74,55.63 55.11,88.03 12.42,32.4 18.62,65.37 18.62,98.93l0 16.07c0,30.16 -5.95,61.36 -17.89,93.49 -11.93,32.13 -29.82,61.95 -53.68,89.46 -23.86,27.53 -53.81,49.67 -89.83,66.45 -36.07,16.75 -78.11,25.19 -126.34,25.19zm0 -127.1c23.4,0 44.33,-3.89 62.81,-11.69 18.53,-7.8 34.3,-18.75 47.48,-32.87 13.14,-14.12 23.13,-30.56 29.94,-49.3 6.82,-18.75 10.21,-39.07 10.21,-60.97 0,-23.4 -3.52,-44.56 -10.55,-63.55 -7.06,-18.99 -17.2,-35.33 -30.34,-48.91 -13.14,-13.65 -28.96,-24.09 -47.43,-31.37 -18.53,-7.28 -39.17,-10.95 -62.1,-10.95 -23.35,0 -44.29,3.62 -62.81,10.95 -18.53,7.28 -34.3,17.79 -47.48,31.37 -13.14,13.65 -23.13,29.94 -29.94,48.91 -6.82,18.99 -10.21,40.2 -10.21,63.55 0,21.9 3.4,42.22 10.21,60.97 6.82,18.75 16.8,35.21 29.94,49.3 13.19,14.12 28.96,25.07 47.48,32.87 18.53,7.75 39.44,11.69 62.81,11.69l-0.02 0z"/>
  <polygon id="_11" class="fil0" points="2081.7,6448.98 2081.7,5915.86 2304.43,5915.86 2481.89,6340.9 2507.45,6340.9 2492.86,6354.04 2492.86,5915.86 2619.91,5915.86 2619.91,6448.98 2395.73,6448.98 2218.3,6023.97 2192.71,6023.97 2207.3,6010.83 2207.3,6448.98 "/>
  <path id="_12" class="fil0" d="M3030.78 6463.62c-48.64,0 -91.03,-8.41 -127.07,-25.19 -36.02,-16.8 -65.96,-38.97 -89.83,-66.45 -23.86,-27.53 -41.63,-57.35 -53.34,-89.46 -11.69,-32.13 -17.49,-63.3 -17.49,-93.49l0 -16.07c0,-33.56 6.08,-66.58 18.26,-98.93 12.15,-32.4 30.43,-61.7 54.77,-88.03 24.36,-26.28 54.42,-47.21 90.19,-62.81 35.8,-15.6 77.3,-23.4 124.52,-23.4 46.75,0 88.03,7.75 123.8,23.4 35.8,15.6 65.84,36.54 90.19,62.81 24.33,26.33 42.74,55.63 55.11,88.03 12.42,32.4 18.62,65.37 18.62,98.93l0 16.07c0,30.16 -5.95,61.36 -17.89,93.49 -11.93,32.13 -29.82,61.95 -53.68,89.46 -23.86,27.53 -53.81,49.67 -89.83,66.45 -36.07,16.75 -78.11,25.19 -126.34,25.19zm0 -127.1c23.4,0 44.33,-3.89 62.81,-11.69 18.53,-7.8 34.3,-18.75 47.48,-32.87 13.14,-14.12 23.13,-30.56 29.94,-49.3 6.82,-18.75 10.21,-39.07 10.21,-60.97 0,-23.4 -3.52,-44.56 -10.55,-63.55 -7.06,-18.99 -17.2,-35.33 -30.34,-48.91 -13.14,-13.65 -28.96,-24.09 -47.43,-31.37 -18.53,-7.28 -39.17,-10.95 -62.1,-10.95 -23.35,0 -44.29,3.62 -62.81,10.95 -18.53,7.28 -34.3,17.79 -47.48,31.37 -13.14,13.65 -23.13,29.94 -29.94,48.91 -6.82,18.99 -10.21,40.2 -10.21,63.55 0,21.9 3.4,42.22 10.21,60.97 6.82,18.75 16.8,35.21 29.94,49.3 13.19,14.12 28.96,25.07 47.48,32.87 18.53,7.75 39.44,11.69 62.81,11.69l-0.02 0z"/>
  <polygon id="_13" class="fil0" points="3394.95,6448.98 3394.95,6358.44 3654.98,6031.25 3658.6,6044.39 3633.77,6012.28 3650.55,6026.9 3405.16,6026.9 3405.16,5915.86 3823.63,5915.86 3823.63,6006.43 3562.94,6333.6 3559.28,6319.72 3584.1,6352.59 3567.3,6337.98 3820.73,6337.98 3820.73,6448.98 "/>
  <path id="_14" class="fil0" d="M4172.45 6463.62c-48.17,0 -89.58,-8.41 -124.15,-25.19 -34.57,-16.8 -63.08,-38.97 -85.45,-66.45 -22.41,-27.53 -38.97,-57.35 -49.67,-89.46 -10.73,-32.13 -16.07,-63.3 -16.07,-93.49l0 -16.07c0,-33.56 5.49,-66.58 16.46,-98.93 10.95,-32.4 27.75,-61.7 50.41,-88.03 22.66,-26.28 50.98,-47.21 85.05,-62.81 34.1,-15.6 73.98,-23.4 119.74,-23.4 48.69,0 91.92,9.13 129.61,27.36 37.74,18.26 68.05,43.82 90.96,76.69 22.88,32.87 36.26,70.95 40.2,114.31l-135.86 0c-3.4,-18.53 -10.73,-34.57 -21.9,-48.17 -11.19,-13.65 -25.56,-24.26 -43.08,-31.76 -17.54,-7.55 -37.49,-11.29 -59.91,-11.29 -20.94,0 -39.81,3.62 -56.61,10.95 -16.8,7.28 -30.9,17.66 -42.37,31.02 -11.42,13.41 -20.2,29.6 -26.28,48.57 -6.13,18.99 -9.13,40.42 -9.13,64.29 0,23.86 3.05,45.27 9.13,64.29 6.08,18.99 15.08,35.33 27.01,48.91 11.93,13.65 26.42,23.96 43.47,31.02 17.03,7.06 36.54,10.6 58.43,10.6 34.08,0 62.91,-8.29 86.53,-24.82 23.62,-16.53 37.86,-38.7 42.74,-66.45l135.81 0c-4.35,39.91 -17.79,76.44 -40.15,109.53 -22.41,33.09 -52.58,59.51 -90.56,79.22 -37.96,19.73 -82.76,29.6 -134.38,29.6l0 -0.02z"/>
  <path id="_15" class="fil0" d="M4496.45 6448.98l170.89 -533.12 217.59 0 176.75 533.12 -140.21 0 -137.28 -438.15 38.7 14.59 -96.39 0 39.44 -14.59 -133.64 438.15 -135.86 0 0.02 0zm139.5 -123.41l40.89 -111.03 202.31 0 40.89 111.03 -284.09 0z"/>
  <polygon id="_16" class="fil0" points="5311.94,6448.98 5311.94,5915.86 5500.35,5915.86 5609.93,6197.05 5624.49,6197.05 5733.33,5915.86 5925.41,5915.86 5925.41,6448.98 5791.03,6448.98 5791.03,5994 5812.21,5995.48 5674.9,6341.64 5551.49,6341.64 5413.45,5995.48 5436.11,5994 5436.11,6448.98 "/>
  <path id="_17" class="fil0" d="M6026.65 6448.98l170.89 -533.12 217.59 0 176.75 533.12 -140.21 0 -137.28 -438.15 38.7 14.59 -96.39 0 39.44 -14.59 -133.64 438.15 -135.86 0 0.02 0zm139.5 -123.41l40.89 -111.03 202.31 0 40.89 111.03 -284.09 0z"/>
  <path id="_18" class="fil0" d="M6880.12 6463.62c-49.67,0 -91.42,-7.8 -125.2,-23.4 -33.83,-15.6 -59.42,-36.88 -76.69,-63.94 -17.3,-27.01 -25.93,-58.04 -25.93,-93.1l131.45 0c0,12.62 3.54,24.21 10.6,34.69 7.06,10.46 17.66,18.62 31.76,24.43 14.12,5.86 32.13,8.78 54.03,8.78 18.99,0 35.21,-2.41 48.57,-7.28 13.41,-4.87 23.62,-11.69 30.68,-20.47 7.06,-8.78 10.6,-19.21 10.6,-31.37 0,-15.6 -6.59,-27.63 -19.73,-36.14 -13.14,-8.54 -35.33,-14 -66.45,-16.46l-34.3 -2.93c-55.01,-4.87 -98.85,-22.14 -131.45,-51.84 -32.62,-29.7 -48.91,-69.11 -48.91,-118.27 0,-35.03 8.14,-64.98 24.43,-89.85 16.29,-24.82 39.34,-43.82 68.99,-56.96 29.7,-13.14 64.75,-19.73 105.18,-19.73 43.82,0 80.92,7.28 111.38,21.9 30.41,14.61 53.63,35.21 69.75,61.7 16.09,26.55 24.14,57.35 24.14,92.38l-131.45 0c0,-11.66 -2.93,-22.36 -8.78,-32.13 -5.86,-9.72 -14.22,-17.39 -25.19,-23 -10.95,-5.58 -24.26,-8.39 -39.81,-8.39 -14.61,0 -26.89,2.29 -36.88,6.94 -9.99,4.65 -17.54,11.07 -22.66,19.36 -5.12,8.27 -7.68,17.49 -7.68,27.75 0,13.65 4.65,25.29 13.88,35.03 9.25,9.74 25.29,15.6 48.17,17.54l34.3 2.93c39.91,3.4 75.24,12.06 105.87,25.93 30.68,13.88 54.82,32.75 72.31,56.61 17.49,23.86 26.33,53.04 26.33,87.64 0,34.57 -8.88,64.75 -26.67,90.56 -17.79,25.81 -43.08,45.76 -75.95,59.88 -32.87,14.12 -72.43,21.16 -118.71,21.16l0.05 0.02z"/>
 </g>
</svg>
