<?xml version="1.0" encoding="UTF-8"?>
<!DOCTYPE svg PUBLIC "-//W3C//DTD SVG 1.1//EN" "http://www.w3.org/Graphics/SVG/1.1/DTD/svg11.dtd">
<!-- Creator: CorelDRAW -->
<svg xmlns="http://www.w3.org/2000/svg" xml:space="preserve" width="7.2558mm" height="5.08mm" version="1.1" style="shape-rendering:geometricPrecision; text-rendering:geometricPrecision; image-rendering:optimizeQuality; fill-rule:evenodd; clip-rule:evenodd"
viewBox="0 0 119.21 83.46"
 xmlns:xlink="http://www.w3.org/1999/xlink"
 xmlns:xodm="http://www.corel.com/coreldraw/odm/2003">
 <defs>
  <style type="text/css">
   <![CDATA[
    .fil0 {fill:#FEFEFE;fill-rule:nonzero}
   ]]>
  </style>
 </defs>
 <g id="Layer_x0020_1">
  <metadata id="CorelCorpID_0Corel-Layer"/>
  <path id="Youtube.svg" class="fil0" d="M116.79 13.12c-0.68,-2.52 -2.01,-4.81 -3.84,-6.66 -1.84,-1.84 -4.14,-3.18 -6.65,-3.86 -9.33,-2.56 -46.64,-2.6 -46.64,-2.6 0,0 -37.31,-0.04 -46.64,2.41 -2.51,0.72 -4.8,2.07 -6.64,3.92 -1.84,1.85 -3.18,4.15 -3.87,6.67 -2.46,9.33 -2.48,28.67 -2.48,28.67 0,0 -0.02,19.44 2.42,28.67 1.37,5.1 5.39,9.14 10.5,10.51 9.42,2.56 46.64,2.61 46.64,2.61 0,0 37.32,0.04 46.64,-2.4 2.52,-0.68 4.81,-2.01 6.66,-3.85 1.85,-1.84 3.18,-4.13 3.87,-6.65 2.47,-9.32 2.49,-28.66 2.49,-28.66 0,0 0.12,-19.45 -2.43,-28.77zm-69.08 46.47l0.03 -35.74 31.02 17.9 -31.04 17.84z"/>
 </g>
</svg>
